<svg width="46" height="51" viewBox="0 0 46 51" fill="none" xmlns="http://www.w3.org/2000/svg">
<path d="M38.671 26.7976C38.9454 26.7902 39.1378 25.7508 39.1378 25.4634C39.1355 24.7734 39.1778 24.0974 39.2154 23.412C39.716 23.4999 40.2111 23.6926 40.7579 23.7038C40.932 23.104 41.175 22.4164 41.1781 21.791C41.1797 21.3812 41.0421 21.0743 41.2428 20.6982C41.3773 20.4459 41.6619 20.2876 41.7704 20.011C41.8861 19.7176 41.7352 19.2482 41.9057 19.0056C42.095 18.7359 42.6305 18.705 42.8774 18.5374C43.5646 18.0715 43.8789 17.3978 44.8382 17.9999C44.9507 17.7786 44.9495 17.5723 44.9883 17.3355C45.0263 17.094 45.0804 16.8727 45.1255 16.6626C45.2948 15.8937 45.1917 15.9498 44.512 15.5346C43.9848 15.213 43.9491 14.5865 43.5089 14.3118C43.1949 14.116 42.3823 14.2859 41.9974 14.2673C41.4596 14.2421 40.8359 14.0591 40.375 14.3927C40.1664 14.5432 40.166 14.8458 39.9591 15.0072C39.7689 15.1542 39.364 15.191 39.1331 15.3133C38.1724 15.8248 37.8282 17.0763 36.5609 17.154C36.5338 17.8858 37.7596 18.3169 36.4198 18.6458C35.6863 18.8253 34.8596 18.65 34.1039 18.6458C33.2862 18.6407 32.7726 18.3706 32.4583 17.659C32.1592 16.9834 32.4755 16.3913 31.3929 16.4656C31.0479 17.6002 31.775 19.0304 30.0213 19.3996C28.7539 19.667 28.1742 18.9504 27.4063 18.3336C27.0465 18.0445 26.892 18.0217 26.4146 17.9563C25.8815 17.8835 25.7431 17.7759 25.2597 17.5778C24.6455 17.3255 23.9376 17.543 23.277 17.4575C22.6702 17.3785 21.9262 17.0005 21.3825 16.7079C20.8196 16.4057 20.4367 15.9301 19.8895 15.6411C19.3375 15.3505 18.7323 15.383 18.7319 14.6419C18.7316 14.1899 19.0549 13.4048 19.2556 12.9876C19.4375 12.608 19.9048 12.2838 19.481 11.8221C19.2396 11.559 18.7284 11.61 18.3901 11.4533C16.9836 10.802 16.2389 9.58157 16.2389 8.20705C16.8194 8.12617 17.3701 8.52049 17.5748 7.88432C17.786 7.22765 17.0671 7.19748 16.8907 6.69942C16.4956 5.58225 18.0115 5.02694 18.4434 4.14466C18.603 3.8196 18.9758 3.05612 18.8684 2.69159C18.7531 2.29997 17.6794 1.84453 17.2639 1.73807C15.9162 1.39367 14.8712 2.86145 13.6419 1.9273C13.1609 1.56161 12.7078 1.1224 12.137 0.873984C11.6274 0.652637 11.0524 0.442517 10.5549 0.208388C10.13 0.00871517 9.70076 0.00793856 9.19157 0.00135916C8.58005 -0.00638023 8.59027 0.00871183 8.24293 0.326413C7.9552 0.589938 8.00538 0.672747 7.64399 0.878228C7.36254 1.03843 6.98189 0.932016 6.89096 1.36078C6.73809 2.07974 8.02067 2.21443 8.44832 2.70817C8.85678 3.18026 8.84345 3.76731 8.73212 4.31796C8.62315 4.8601 8.49732 5.30664 8.52829 5.88248C8.5765 6.78296 9.09081 6.86922 9.75325 7.40212C10.1578 7.72717 10.7422 8.16985 11.0425 8.58547C11.5129 9.2352 10.8187 9.31065 10.4863 9.76144C10.1868 10.1674 10.079 10.7451 9.88654 11.1979C9.74777 11.5237 9.58235 11.68 9.34755 11.9552C9.19428 12.1343 9.11392 11.983 9.00299 12.2148C8.91518 12.399 9.09354 12.6796 8.99044 12.8657C8.87363 13.0778 8.37735 13.2314 8.16959 13.3746C7.73016 13.6764 7.79641 13.6791 7.64432 14.0804C7.47811 14.5169 7.56357 14.5297 7.23312 14.8899C7.02027 15.1213 6.80585 15.3032 6.57338 15.5346C6.2002 15.9053 5.84974 16.6243 5.34645 16.8201C4.87488 17.0043 3.93644 15.8736 3.27833 16.1662C2.97414 16.5589 3.14073 17.6269 2.81812 18.0217C2.57078 18.3235 2.27992 18.2287 2.42025 18.6501C2.45514 18.7549 2.91769 19.0022 3.01806 19.1017C3.44573 19.5266 3.26031 19.8489 3.44142 20.4019C3.61899 20.9433 4.14426 21.1704 4.31088 21.713C4.39986 22.002 4.64173 22.6893 4.33205 22.9795C4.15997 23.1409 3.05258 23.2094 2.81347 23.2191C1.92911 23.2566 0.107177 23.0705 0.375288 24.3795C0.544629 24.6392 2.29095 25.7003 2.88169 25.5915C3.21331 25.53 3.4795 25.3295 3.82679 25.3512C3.32543 26.2095 2.53086 26.2637 1.53012 26.2892C1.38391 26.9409 2.36974 27.7144 2.79902 28.1548C3.34977 28.7194 3.96835 29.2754 4.85737 29.1574C5.75971 29.0374 6.30852 28.5382 6.28267 27.7171C6.26425 27.1103 6.05453 26.2064 7.07408 26.2892C7.15718 26.7535 6.91101 27.2806 7.02979 27.7805C7.17482 28.3931 7.76753 28.8768 7.77927 29.5343C7.79064 30.1314 7.44725 30.677 7.43941 31.2996C7.4304 31.9942 7.85257 32.4818 7.98742 33.0971C8.26652 34.3776 8.23869 35.7087 8.58091 36.9645C8.95251 38.3258 9.58243 39.484 10.2461 40.7339C10.8255 41.8252 10.8317 42.899 11.4526 43.9225C12.1151 45.015 12.7333 46.0288 13.3056 47.2211C13.6686 47.9787 13.7889 48.8169 14.2546 49.4829C14.9791 49.5165 15.4365 49.3869 15.923 48.8536C16.1017 48.6578 16.1703 48.195 16.3299 48.0654C16.5709 47.8692 16.8751 47.9385 17.2232 47.918C17.2867 47.5863 16.9704 47.5678 16.9602 47.3054C16.9418 46.836 17.1691 46.7656 17.5094 46.5686C18.0707 46.244 18.3208 46.2896 18.3898 45.6128C18.4874 44.6571 18.0088 43.5519 18.6097 42.7485C18.9688 42.2687 19.2628 42.1189 19.144 41.4259C19.0609 40.9414 18.7618 40.4635 18.6591 39.9814C18.4776 39.1347 18.5337 37.4967 19.5999 37.1739C19.8033 38.3135 20.516 36.626 20.6492 36.5354C20.915 36.3574 21.3399 36.5888 21.6253 36.4217C21.8609 36.2835 22.071 35.7127 22.2011 35.4763C22.4591 35.0081 22.2337 35.1574 22.7456 34.9137C23.0388 34.774 23.3544 34.7399 23.659 34.5375C24.2748 34.1293 24.8785 33.9466 24.9886 33.2246C25.0948 32.5261 24.9843 32.2513 25.599 31.7746C26.1423 31.3528 26.6009 31.1396 27.2167 30.9252C27.7204 30.7499 28.5024 30.4616 28.8137 30.0305C29.1391 29.5813 28.8737 29.0597 29.0015 28.5334C29.2229 27.6174 29.9583 27.6689 30.6847 27.2626C31.2421 26.9503 32.0833 27.7068 32.5384 27.6271C32.756 27.0792 32.2625 26.7607 32.1273 26.2185C31.9928 25.6783 32.1998 25.1033 32.0116 24.5758C31.8544 24.1335 31.7795 23.6754 31.6055 23.2605C31.3887 22.7439 30.8709 22.3972 30.9317 21.7994C31.4177 21.715 32.489 21.6852 32.1355 20.9651C31.9673 20.6222 31.5369 20.6071 31.3829 20.226C31.2896 19.9953 31.3103 19.6858 31.3244 19.4083C32.1853 19.4988 32.8003 20.0414 33.7509 20.0979C34.3793 20.9418 33.7622 21.5242 35.3114 21.6523C35.6183 21.6774 37.2737 21.4282 37.5642 21.8965C37.9127 22.4606 37.0695 22.6108 36.7539 22.8379C36.293 23.1703 35.7132 23.8909 35.8038 24.4663C35.9324 25.2894 36.8418 25.2809 36.9025 24.4129C38.5697 23.9725 37.5599 27.0451 38.7429 26.7865" fill="#D3302F"/>
<path d="M38.7164 41.3765C38.6694 41.7415 38.8431 42.0698 38.7745 42.4301C38.5666 42.3469 38.5537 42.4658 38.3906 42.2559C38.3525 42.7971 38.6835 43.07 38.5639 43.6302C38.4819 44.0099 38.2929 44.3154 38.3188 44.7485C38.7274 44.608 38.4792 44.1806 38.5765 43.8307C38.6788 43.4618 38.898 43.4145 38.9211 42.9411C38.9403 42.5571 39.1846 41.5796 38.9211 41.3772" fill="#D3302F"/>
<path d="M38.6482 48.1963C38.5874 48.3221 38.5196 48.427 38.5247 48.5652C38.6235 48.5292 38.6514 48.4522 38.7165 48.3844" fill="#D3302F"/>
<path d="M38.1724 45.6938C38.0363 45.791 37.9739 45.9013 38.0457 46.1216C38.3339 46.0515 38.3829 45.9133 38.1724 45.7558" fill="#D3302F"/>
<path d="M39.7369 49.9477C39.8161 50.1036 39.9286 50.1814 39.8615 50.3822C39.7228 50.2348 39.7012 50.0057 39.7369 49.7607" fill="#D3302F"/>
</svg>
