<svg width="39" height="46" viewBox="0 0 39 46" fill="none" xmlns="http://www.w3.org/2000/svg">
<path d="M38.0808 23.7914C37.8607 22.8668 37.1905 22.1567 36.285 21.8851C36.2812 21.884 36.2774 21.882 36.2736 21.8813L32.041 20.5644L29.7049 13.3633C29.7049 13.363 29.7046 13.3623 29.7046 13.3619C29.7046 13.3616 29.7042 13.3605 29.7042 13.3599C29.3511 12.2838 28.4757 11.4543 27.361 11.1378C27.3585 11.1368 27.3561 11.1358 27.3533 11.1354L24.2085 10.2323C24.2071 10.232 24.2061 10.232 24.2047 10.2313C24.2033 10.2309 24.2023 10.2302 24.2012 10.2302C21.8029 9.56071 19.2447 9.4526 16.804 9.91731C14.3592 10.3827 12.0207 11.4254 10.042 12.9325C10.0118 12.9554 9.98341 12.9803 9.95604 13.0056L7.0857 15.1909C7.08258 15.193 7.08085 15.1954 7.07773 15.1975C6.25505 15.7977 5.83432 16.758 5.95186 17.7789C6.07108 18.8147 6.74613 19.7012 7.71301 20.0913C8.05712 20.2303 8.41891 20.2985 8.77722 20.2985C9.40723 20.2985 10.0283 20.0878 10.5355 19.6841C10.5359 19.6841 10.5359 19.6838 10.5366 19.6838L14.518 16.6727C14.5183 16.6724 14.519 16.6724 14.519 16.6717C14.5193 16.6714 14.52 16.6714 14.5204 16.6707C15.2547 16.1114 16.2059 15.8906 17.1312 16.0649C17.1333 16.0653 17.135 16.0653 17.1371 16.066C17.1392 16.0663 17.1409 16.067 17.143 16.0673L17.6285 16.1529L14.6781 25.758C14.6781 25.7583 14.6781 25.759 14.6777 25.759C14.6777 25.7594 14.6777 25.7594 14.6774 25.7601C14.5585 26.1499 14.3946 26.4798 14.1766 26.7685L9.76241 32.591L4.90116 30.2675C4.89908 30.2665 4.89735 30.2661 4.89527 30.2651C4.89319 30.2641 4.89145 30.263 4.88938 30.262C4.12734 29.9092 3.2762 29.8631 2.49233 30.1324C1.69287 30.4065 1.05215 30.979 0.688598 31.7424C-0.0592335 33.3118 0.607508 35.214 2.17491 35.9819C2.17699 35.9829 2.17872 35.9833 2.1808 35.9843C2.18184 35.9847 2.18288 35.9854 2.18392 35.9857L8.54044 39.03C8.54079 39.03 8.54079 39.03 8.54148 39.0304C8.54183 39.0304 8.54183 39.0307 8.54252 39.0307C9.12783 39.3093 9.7658 39.4514 10.4041 39.4514C10.7423 39.4514 11.0802 39.4116 11.4112 39.3312C12.3666 39.0986 13.2218 38.5352 13.8196 37.7443L13.8199 37.744L19.2395 30.5852L19.2398 30.5849C19.2478 30.5745 19.2547 30.5686 19.2596 30.5651L25.806 34.8654V42.5613C25.806 42.5651 25.8064 42.5689 25.8064 42.5727C25.8064 42.5765 25.806 42.5807 25.806 42.5842C25.8244 43.4207 26.1643 44.2032 26.7628 44.7871C27.3606 45.3703 28.15 45.6912 28.9859 45.6912C30.7123 45.6912 32.0943 44.3265 32.1325 42.5842C32.1325 42.5803 32.1321 42.5765 32.1321 42.5727C32.1321 42.5689 32.1325 42.5651 32.1325 42.5613L32.1318 33.7959C32.1318 32.3523 31.4054 31.0114 30.1888 30.2072C30.1884 30.2072 30.1884 30.2068 30.1877 30.2068L30.1853 30.2047C30.1853 30.2047 30.185 30.2047 30.185 30.2044L25.3033 26.9611C25.3029 26.9608 25.3023 26.9608 25.3019 26.9601C25.3016 26.9597 25.3009 26.959 25.3005 26.959C25.2825 26.9472 25.2718 26.9348 25.2662 26.9268L26.6607 22.3698L26.9275 23.1845V23.1849C27.255 24.1836 28.0528 24.9633 29.0612 25.2704C29.0615 25.2704 29.0622 25.2707 29.0626 25.2707C29.0629 25.2707 29.0629 25.2711 29.0636 25.2711L34.7177 26.977C34.7191 26.9774 34.7212 26.9781 34.7226 26.9784C34.978 27.0585 35.2379 27.0976 35.4957 27.0976C36.1454 27.0976 36.782 26.8492 37.2921 26.3782C38.0025 25.7236 38.3047 24.7318 38.0809 23.7913L38.0808 23.7914ZM28.9849 43.579C28.3996 43.579 27.9307 43.1233 27.9162 42.5411V34.5312C27.9162 34.035 27.6573 33.5565 27.2404 33.2816C27.2401 33.2816 27.2401 33.2813 27.2394 33.2813L27.2391 33.2809L20.4139 28.7978C20.4136 28.7974 20.4129 28.7974 20.4126 28.7967C19.4718 28.1789 18.2436 28.3989 17.5539 29.3103V29.3106L12.1344 36.4705L12.1341 36.4708C11.5016 37.3074 10.3979 37.5763 9.4494 37.1247L3.10219 34.0849C2.56921 33.8229 2.34119 33.1797 2.59347 32.6502C2.83951 32.1339 3.45704 31.927 4.00003 32.1772L9.30866 34.7148C9.30866 34.7148 9.30901 34.7148 9.30901 34.7152H9.30936C9.51243 34.8122 9.72971 34.8583 9.94491 34.8583C10.4013 34.8583 10.8497 34.6486 11.1398 34.2671L11.1408 34.2661L15.8579 28.0432C15.8579 28.0429 15.8583 28.0429 15.8583 28.0422L15.8586 28.0418C16.2284 27.5529 16.5015 27.0091 16.6941 26.3792C16.6941 26.3788 16.6945 26.3778 16.6952 26.3771L19.84 16.1395C19.84 16.1392 19.84 16.1385 19.8403 16.1381V16.1378C19.9713 15.707 19.9193 15.2489 19.6972 14.8812C19.4792 14.5205 19.1098 14.2751 18.6579 14.1895C18.6559 14.1892 18.6541 14.1892 18.652 14.1885C18.65 14.1882 18.6482 14.1875 18.6461 14.1871L17.5085 13.9865H17.5064C16.001 13.7068 14.4476 14.071 13.2429 14.9865C13.2426 14.9865 13.2426 14.9869 13.2419 14.9869L9.26047 17.9979C9.25458 18.0024 9.24938 18.0073 9.24419 18.0118C9.23864 18.0163 9.23275 18.0198 9.22686 18.0246C9.02206 18.1927 8.75141 18.2329 8.5019 18.1324C8.25239 18.0315 8.07878 17.8032 8.04793 17.5356C8.01709 17.2674 8.11516 17.0453 8.33106 16.8932C8.33556 16.89 8.33937 16.8862 8.34388 16.8831C8.35046 16.8786 8.3567 16.8748 8.36259 16.8703L11.3068 14.6288C11.3332 14.6084 11.3581 14.5873 11.3824 14.5651C14.8553 11.9515 19.4277 11.09 23.6302 12.2623L26.7688 13.164C26.7702 13.1644 26.7719 13.1644 26.7737 13.1651C26.7747 13.1654 26.7757 13.1654 26.7768 13.1661C27.2183 13.2895 27.5624 13.6076 27.6968 14.0172V14.0175L30.1382 21.5415C30.1382 21.5419 30.1386 21.5426 30.1386 21.5426C30.1386 21.5429 30.1389 21.5436 30.1389 21.544C30.2848 21.9893 30.6532 22.3417 31.1245 22.489C31.1265 22.4893 31.1279 22.4903 31.1293 22.491L35.6457 23.8959C35.6502 23.8973 35.6547 23.8983 35.6596 23.8994C35.6631 23.9004 35.6662 23.9018 35.6689 23.9028C35.8647 23.959 35.9781 24.0782 36.0255 24.2788C36.0727 24.4781 36.0092 24.6877 35.8585 24.8264C35.6984 24.974 35.5265 25.019 35.3474 24.9612C35.3439 24.9601 35.3404 24.9598 35.337 24.958C35.3335 24.957 35.3304 24.9556 35.3269 24.9546L29.6769 23.2503C29.3307 23.1446 29.0459 22.8674 28.9336 22.5264L27.6289 18.545C27.6254 18.5346 27.6209 18.5245 27.6171 18.5148C27.6102 18.4954 27.6032 18.4767 27.5953 18.4577C27.5883 18.4417 27.5807 18.4265 27.5727 18.4109C27.5651 18.396 27.5582 18.3811 27.5502 18.3665C27.5408 18.3495 27.5308 18.3333 27.5204 18.317C27.5124 18.3045 27.5052 18.292 27.4972 18.2802C27.4861 18.2639 27.4743 18.248 27.4625 18.2324C27.4535 18.221 27.4445 18.2092 27.4352 18.1978C27.4234 18.1832 27.4109 18.17 27.3977 18.1562C27.3866 18.1444 27.3759 18.1323 27.3641 18.1215C27.3523 18.1097 27.3399 18.0986 27.3274 18.0872C27.3139 18.0754 27.3007 18.0633 27.2861 18.0519C27.2744 18.0425 27.2622 18.0335 27.2498 18.0245C27.2345 18.0131 27.2186 18.002 27.2026 17.9912C27.1901 17.9829 27.1773 17.9753 27.1645 17.968C27.1482 17.9586 27.1316 17.9486 27.115 17.9396C27.1 17.9316 27.0848 17.9247 27.0692 17.9178C27.054 17.9108 27.0384 17.9032 27.0231 17.897C27.0037 17.889 26.9843 17.8824 26.9646 17.8755C26.9542 17.872 26.9448 17.8675 26.9344 17.8644C26.9313 17.8633 26.9285 17.863 26.9254 17.8623C26.9029 17.8557 26.8807 17.8505 26.8578 17.8453C26.8464 17.8429 26.8349 17.8394 26.8235 17.8374C26.8017 17.8328 26.7788 17.8304 26.7563 17.8273C26.7438 17.8259 26.7313 17.8235 26.7196 17.8225C26.6998 17.8204 26.6797 17.8204 26.6599 17.82C26.645 17.8197 26.6301 17.8186 26.6152 17.8186C26.599 17.8186 26.5823 17.82 26.566 17.8211C26.5477 17.8221 26.5286 17.8225 26.5109 17.8245C26.4974 17.8259 26.4843 17.8283 26.47 17.8311C26.4493 17.8342 26.4278 17.837 26.407 17.8415C26.3945 17.8439 26.382 17.8481 26.3692 17.8509C26.3477 17.8564 26.3266 17.862 26.3054 17.8682C26.3023 17.8692 26.2989 17.8696 26.2961 17.8706C26.285 17.8741 26.2746 17.8789 26.2639 17.8831C26.2455 17.89 26.2271 17.8966 26.2091 17.9039C26.1921 17.9108 26.1762 17.9191 26.1599 17.9271C26.146 17.934 26.1315 17.941 26.1176 17.9486C26.0996 17.958 26.083 17.9683 26.066 17.9794C26.0542 17.9871 26.0421 17.994 26.0306 18.002C26.0136 18.0134 25.9977 18.0252 25.9814 18.0377C25.97 18.046 25.9589 18.055 25.9482 18.064C25.9336 18.0765 25.9194 18.0889 25.9055 18.1018C25.8941 18.1129 25.8827 18.1233 25.8712 18.1347C25.8594 18.1472 25.848 18.1596 25.8366 18.1725C25.8248 18.186 25.8134 18.1991 25.8019 18.2133C25.7926 18.2251 25.7832 18.2376 25.7742 18.2501C25.7628 18.2653 25.7517 18.2809 25.7413 18.2972C25.733 18.3097 25.7253 18.3225 25.7181 18.3353C25.708 18.3516 25.6986 18.3683 25.6896 18.3849C25.6817 18.3998 25.6747 18.4147 25.6678 18.4299C25.6609 18.4452 25.6533 18.4608 25.647 18.4767C25.6394 18.4954 25.6325 18.5148 25.6262 18.5339C25.6228 18.5443 25.6182 18.5543 25.6148 18.5651L23.2396 26.3265V26.3275V26.3279C22.9669 27.2241 23.3259 28.1839 24.133 28.7183C24.1333 28.7183 24.1333 28.7186 24.134 28.7186L24.1361 28.7196C24.1365 28.72 24.1372 28.72 24.1372 28.7207C24.1372 28.7207 24.1375 28.7207 24.1375 28.721L29.0185 31.9643C29.0189 31.9647 29.0196 31.9647 29.0199 31.9654C29.0203 31.9657 29.021 31.9657 29.0213 31.9664C29.6458 32.3781 30.0183 33.0618 30.019 33.7947L30.0186 42.5407C30.0048 43.1329 29.5602 43.5785 28.9846 43.5785L28.9849 43.579Z" fill="#D3302F"/>
<path d="M27.4697 9.8589C29.8875 9.8589 31.8545 7.89193 31.8545 5.47413C31.8545 3.05632 29.8875 1.08936 27.4697 1.08936C25.0519 1.08936 23.085 3.05632 23.085 5.47413C23.085 7.89193 25.0523 9.8589 27.4697 9.8589ZM27.4697 3.20119C28.7232 3.20119 29.7427 4.22069 29.7427 5.47413C29.7427 6.72756 28.7232 7.74706 27.4697 7.74706C26.2163 7.74706 25.1968 6.72756 25.1968 5.47413C25.1968 4.22069 26.2163 3.20119 27.4697 3.20119Z" fill="#D3302F"/>
<path fill-rule="evenodd" clip-rule="evenodd" d="M22.6865 5.47425C22.6865 2.83659 24.8317 0.691406 27.4694 0.691406C30.107 0.691406 32.2522 2.83659 32.2522 5.47425C32.2522 8.11191 30.107 10.2571 27.4694 10.2571C24.8321 10.2571 22.6865 8.11193 22.6865 5.47425ZM27.4694 1.48756C25.2714 1.48756 23.4827 3.2763 23.4827 5.47425C23.4827 7.67219 25.2717 9.46095 27.4694 9.46095C29.6673 9.46095 31.4561 7.67221 31.4561 5.47425C31.4561 3.2763 29.6673 1.48756 27.4694 1.48756ZM27.4694 3.59939C26.4358 3.59939 25.5945 4.44067 25.5945 5.47425C25.5945 6.50784 26.4358 7.34912 27.4694 7.34912C28.503 7.34912 29.3442 6.50784 29.3442 5.47425C29.3442 4.44067 28.503 3.59939 27.4694 3.59939ZM24.7984 5.47425C24.7984 4.00096 25.9961 2.80324 27.4694 2.80324C28.9427 2.80324 30.1404 4.00096 30.1404 5.47425C30.1404 6.94754 28.9427 8.14527 27.4694 8.14527C25.9961 8.14527 24.7984 6.94754 24.7984 5.47425Z" fill="#D3302F"/>
</svg>
