<svg width="28" height="46" viewBox="0 0 28 46" fill="none" xmlns="http://www.w3.org/2000/svg">
<path d="M27.8126 0.691406V6.21815H22.728V15.2329H10.1024C8.69414 15.2329 7.99 15.7323 7.99 16.7313C7.99 17.5173 8.37482 18.3442 9.14447 19.2121C10.9622 18.2951 12.8781 17.8366 14.8923 17.8366C17.4469 17.8366 19.6494 18.6308 21.4998 20.2192C23.3666 21.7913 24.3 23.8546 24.3 26.4092C24.3 29.2258 23.0719 31.8541 20.6155 34.294L16.145 30.4621C19.7313 28.6445 21.5244 26.7695 21.5244 24.8371C21.5244 24.0675 21.1969 23.3961 20.5419 22.823C19.9032 22.2498 19.0926 21.9632 18.1101 21.9632C15.9976 21.9632 13.8197 22.7329 11.5762 24.2722C9.34917 25.8115 8.23563 27.5391 8.23563 29.4551C8.23563 32.1734 10.1761 34.8017 14.0571 37.3399C17.9381 39.8781 22.2858 41.8759 27.1003 43.3333L26.5599 45.6914C20.7302 43.972 15.3754 41.3846 10.4955 37.9294C5.61554 34.4905 3.17559 30.9862 3.17559 27.4163C3.17559 24.8617 4.41194 22.5773 6.88465 20.5631C4.67395 17.7793 3.5686 15.5113 3.5686 13.7591C3.5686 11.2864 5.4436 10.05 9.1936 10.05H17.1521V6.21815H0.154297V0.691406H27.8126Z" fill="#D3302F"/>
</svg>
