<svg width="45" height="46" viewBox="0 0 45 46" fill="none" xmlns="http://www.w3.org/2000/svg">
<path d="M43.6653 21.5927C43.4867 20.689 42.9692 19.8907 42.2217 19.3651C41.4742 18.8399 40.5546 18.6288 39.6563 18.7759C38.7584 18.9229 37.9515 19.4172 37.4055 20.1546L36.6016 21.2411V21.2408C35.9888 20.873 35.3272 20.5954 34.6366 20.4172C34.2951 20.3319 33.9484 20.2718 33.5984 20.2369C35.1137 17.0459 35.8973 13.5495 35.8911 10.008V8.31854C35.8911 8.12134 35.8138 7.93211 35.6761 7.79268C35.5385 7.65326 35.3517 7.57491 35.157 7.57491H32.2207V6.43856C32.2246 5.30017 31.9136 4.18379 31.3227 3.21537C30.7318 2.24696 29.885 1.46585 28.8782 0.960267C28.6718 0.855692 28.4286 0.855692 28.2221 0.960267C27.2154 1.46587 26.3685 2.24704 25.7776 3.21537C25.1867 4.18371 24.8757 5.30017 24.8797 6.43856V7.57491H21.9433C21.5379 7.57491 21.2092 7.90788 21.2092 8.31854V9.54913C20.9257 9.37319 20.5603 9.41535 20.3231 9.65171L19.7217 10.2609L9.96372 1.08154C9.82804 0.953732 9.64944 0.882352 9.46395 0.882352H7.99576C7.59037 0.882352 7.26166 1.21533 7.26166 1.62598V3.11324C7.26166 3.30113 7.33212 3.48206 7.4583 3.6195L16.52 13.5051L15.9186 14.1143V14.1139C15.6322 14.4044 15.6322 14.8752 15.9186 15.1656L17.7538 17.0247C18.0406 17.3149 18.5053 17.3149 18.7921 17.0247L19.0857 16.7273C19.2187 17.2956 19.5366 17.8025 19.9882 18.1657C20.4402 18.5289 20.9996 18.7278 21.5764 18.7298H22.8516C22.9925 19.0883 23.1419 19.4432 23.2992 19.7947L20.2403 19.6712L12.4428 11.7725C11.3161 10.6279 9.81914 9.93505 8.22737 9.82185C6.63594 9.70831 5.05768 10.1824 3.78413 11.156L2.78358 11.9232L2.77047 11.9329L2.73737 11.9588V11.9591C2.29331 12.307 1.9977 12.814 1.91086 13.3756L0.662895 21.5884C0.608493 21.9463 0.816921 22.2916 1.15611 22.4064L2.15012 22.7411C2.65219 22.9097 3.19748 22.8905 3.6871 22.6866C4.17639 22.4828 4.5775 22.108 4.81711 21.6299L5.563 20.1188L7.14428 26.5229C7.40121 27.5739 7.90787 28.5453 8.62035 29.3523L3.39226 33.6849C2.97769 34.0285 2.70109 34.5135 2.61425 35.049C2.5274 35.5845 2.63621 36.134 2.92034 36.5941L5.87081 41.3712L7.339 44.3458L7.33867 44.3454C7.45862 44.5884 7.69982 44.7458 7.9679 44.7561H7.99575C8.25334 44.7561 8.49225 44.619 8.62498 44.3952L10.8273 40.6771C11.0295 40.3371 10.9325 39.8963 10.607 39.6755L8.56633 38.2975L7.54288 36.2226L10.1892 35.1503V35.1507C11.7469 34.5159 13.2026 33.6495 14.508 32.5798L14.6027 34.3868C14.6056 34.4453 14.6158 34.5033 14.6322 34.5594L16.7765 41.8002L16.0915 44.5768C16.0368 44.7993 16.0863 45.0346 16.2256 45.2152C16.3652 45.3955 16.5789 45.5007 16.805 45.5004H20.4755C20.6701 45.5004 20.8569 45.4221 20.9946 45.2826C21.1322 45.1432 21.2096 44.954 21.2096 44.7568V41.7823C21.2096 41.7162 21.201 41.6505 21.184 41.5867L19.6034 35.7174L25.7698 34.3291V34.3287C25.9802 34.2816 26.1594 34.1432 26.2601 33.9503C26.3607 33.7571 26.3725 33.529 26.2925 33.3265L25.3572 30.9589L26.4465 30.6279H27.665L29.9033 35.7278L25.0347 42.0695H25.0351C24.9833 42.1362 24.944 42.2119 24.9181 42.2926L24.184 44.5235C24.1102 44.7499 24.1479 44.9985 24.2859 45.1921C24.4235 45.3853 24.6444 45.5002 24.88 45.5005H29.2846C29.4793 45.5005 29.6661 45.4221 29.8037 45.2827C29.9414 45.1433 30.0187 44.9541 30.0187 44.7569V42.7809L35.0023 36.2898C35.1334 36.1191 35.1845 35.8994 35.1426 35.6876L34.8637 34.2879C35.723 34.8397 36.658 35.2593 37.6385 35.5328L38.1943 35.6859L39.5353 42.4781L38.8628 44.5218H38.8632C38.7884 44.7489 38.8261 44.9988 38.9647 45.1927C39.1034 45.3866 39.3256 45.5011 39.5619 45.5004H43.2323C43.427 45.5004 43.6138 45.4221 43.7514 45.2827C43.8891 45.1432 43.9664 44.954 43.9664 44.7568V42.5259C43.9664 42.4851 43.9628 42.4443 43.9563 42.4041L42.4881 33.4806C42.4687 33.3627 42.4219 33.2515 42.3514 33.1562L40.296 30.3809V27.7842C40.296 27.6876 40.2878 27.5923 40.2842 27.497V27.4973C40.9733 28.9587 42.2184 30.0744 43.7344 30.5894C43.8091 30.6149 43.8874 30.6279 43.9664 30.6279C44.1771 30.6279 44.3777 30.5359 44.5173 30.3759C44.6566 30.2156 44.7212 30.0024 44.6946 29.7906L43.6653 21.5927ZM23.4236 15.7552H27.8158V24.258C25.7488 21.7875 24.2488 18.8833 23.4236 15.7552ZM29.2839 15.7552H33.6761C32.8509 18.8837 31.3509 21.7878 29.2839 24.258V15.7552ZM34.4226 10.0083C34.4229 11.4381 34.2873 12.8646 34.0182 14.2679H29.2839V9.0625H34.4226L34.4226 10.0083ZM28.5498 2.47472C29.8289 3.25719 30.6453 4.62759 30.7331 6.13839C29.6319 5.14609 28.209 4.59903 26.7352 4.60065H26.7234C27.0974 3.7156 27.7364 2.97197 28.5499 2.47464L28.5498 2.47472ZM26.3476 6.4389C26.3476 6.32005 26.3617 6.20452 26.3695 6.088H26.7366C28.0134 6.08435 29.2332 6.62381 30.098 7.57526H26.3475L26.3476 6.4389ZM22.6771 9.0625H27.8158V14.2679H23.0815C22.8124 12.8646 22.6767 11.4381 22.6771 10.0083L22.6771 9.0625ZM8.72929 2.82129V2.3698H9.17499L18.6838 11.3129L17.5578 12.4536L8.72929 2.82129ZM18.2725 15.4477L17.4752 14.64L20.8415 11.2299L21.2718 11.6658C21.2872 11.8972 21.2997 12.1282 21.3216 12.359L18.2725 15.4477ZM21.5759 17.2427C20.9677 17.2427 20.4748 16.7434 20.4748 16.1272C20.4748 15.5111 20.9677 15.0118 21.5759 15.0118H21.7369C21.8968 15.7667 22.0928 16.5103 22.3241 17.2427H21.5759ZM11.4043 12.8241L18.0774 19.5838L15.6496 19.4865L8.86051 12.6066V12.6063C8.52361 12.2634 8.08544 12.0416 7.61254 11.9742L5.79275 11.711C6.4141 11.4421 7.08165 11.3003 7.7571 11.2937C9.12436 11.2976 10.4346 11.8477 11.4043 12.8241V12.8241ZM9.64251 33.7706L6.25451 35.1427C6.06378 35.2197 5.91336 35.3744 5.84027 35.5686C5.76719 35.7632 5.77801 35.9799 5.86977 36.1658L7.33796 39.1404C7.39564 39.2559 7.4815 39.3545 7.58768 39.4269L9.20764 40.5184L8.05272 42.4681L7.14949 40.6449L4.16361 35.8059C3.96862 35.4879 4.03744 35.0723 4.32453 34.8362L10.1842 29.9804C10.3523 29.8413 10.451 29.6338 10.4536 29.4137C10.4552 29.1946 10.3615 28.9861 10.1973 28.8434C9.3934 28.1436 8.8235 27.2081 8.56686 26.1663L6.69328 18.5717C7.28285 18.3802 7.79736 18.0047 8.16315 17.4988C8.52894 16.9928 8.72716 16.3826 8.72912 15.7555H7.26093C7.26093 16.1499 7.10624 16.5284 6.83096 16.8072C6.55568 17.0861 6.18207 17.2428 5.79274 17.2428V17.2511C5.51582 17.2478 5.26118 17.4038 5.13566 17.6541L3.50295 20.9609C3.33942 21.2912 2.96091 21.4496 2.61483 21.3327L2.20812 21.1959L3.36069 13.6036V13.6033C3.39084 13.4104 3.49473 13.2368 3.64974 13.1209C3.80409 13.0044 3.99778 12.9549 4.18786 12.9832L7.40772 13.4502C7.56536 13.4722 7.71185 13.5462 7.82393 13.6607L14.8155 20.7461C14.946 20.8782 15.1206 20.9556 15.3051 20.9632L22.2175 21.2421L17.2676 23.2499H17.2672C17.0863 23.3229 16.9418 23.466 16.8648 23.6472C16.7881 23.8285 16.7855 24.0333 16.8579 24.2166L19.4846 30.8684H19.4843C18.448 30.9641 17.4049 30.9488 16.3719 30.823C16.6246 30.5444 16.8678 30.2569 17.1017 29.9611L17.3783 29.6109L16.2333 28.6813L15.9557 29.0315C14.2896 31.1363 12.1149 32.7686 9.64252 33.7705L9.64251 33.7706ZM19.7403 44.0131H17.7441L18.2498 41.9622H18.2501C18.2826 41.8327 18.2793 41.6966 18.2413 41.5688L16.0639 34.2164L15.9574 32.2518C16.4821 32.3249 17.0087 32.3717 17.538 32.3922V33.6023C17.538 33.6683 17.5465 33.7341 17.5636 33.7978L19.7403 41.8818L19.7403 44.0131ZM19.3123 34.2593C19.0996 33.7952 19.2356 33.2434 19.639 32.9357L20.9148 31.9667C21.1803 31.7652 21.2793 31.408 21.1564 31.0959L18.4923 24.3498L24.407 21.954C24.7829 22.5983 25.1903 23.2271 25.6294 23.8399L22.3486 25.4971C22.0068 25.6697 21.8528 26.0794 21.9947 26.4386L24.6109 33.0628L19.3123 34.2593ZM26.3369 29.1408C26.2652 29.1408 26.1941 29.1518 26.1256 29.1727L24.813 29.5734L23.6099 26.5245L26.5463 25.0372C27.0133 25.6076 27.5065 26.161 28.0305 26.6912H28.0302C28.3169 26.9816 28.7817 26.9816 29.0684 26.6912C29.401 26.3552 29.7173 26.0069 30.027 25.6544V25.6547C30.0536 26.8472 30.282 28.0264 30.7024 29.1409L26.3369 29.1408ZM28.7044 42.0697C28.6041 42.2002 28.5494 42.3609 28.5494 42.5262V44.0135H25.8979L26.2701 42.8824L31.3311 36.29H31.3308C31.4973 36.0739 31.5323 35.7824 31.4226 35.5318L29.271 30.6282H31.3999C31.8626 31.4425 32.4306 32.1912 33.0883 32.8538L33.6402 35.6454L28.7044 42.0697ZM41.0691 33.9038L42.4976 42.5877V44.0131H40.5801L40.9911 42.7609H40.9914C41.0324 42.6384 41.0406 42.507 41.0147 42.3802L39.5465 34.9439C39.4924 34.668 39.2889 34.4466 39.0208 34.3719L38.0268 34.0973V34.0977C36.15 33.5758 34.4937 32.4444 33.3123 30.8775C32.1308 29.3105 31.4894 27.394 31.4862 25.4224H30.2258C31.2201 24.2604 32.0997 23.0029 32.8525 21.6677L33.0318 21.675L33.0315 21.6753C33.4513 21.6916 33.8681 21.753 34.2751 21.8582C35.5769 22.1912 36.7317 22.9554 37.5562 24.0287C38.3808 25.1023 38.8281 26.4239 38.8271 27.7841V30.6278C38.8271 30.7888 38.8786 30.9451 38.9739 31.074L41.0691 33.9038ZM41.5236 26.6906L40.236 23.646V23.6464C40.156 23.4581 40.0033 23.3117 39.8136 23.2414C39.6238 23.171 39.4137 23.1829 39.2332 23.2746L38.9323 23.4269H38.932C38.6013 22.9486 38.2172 22.5104 37.7876 22.121L38.5797 21.0517C38.8943 20.6271 39.3573 20.3409 39.8738 20.2516C40.3903 20.1623 40.9212 20.2768 41.3568 20.5716C41.7927 20.8664 42.1001 21.3196 42.2164 21.8371L43.0648 28.6042H43.0652C42.3842 28.1235 41.8504 27.4595 41.5236 26.687L41.5236 26.6906Z" fill="#D3302F"/>
</svg>
