<svg width="46" height="46" viewBox="0 0 46 46" fill="none" xmlns="http://www.w3.org/2000/svg">
<path fill-rule="evenodd" clip-rule="evenodd" d="M11.4119 1.09277C6.8656 1.09277 3.17578 4.83122 3.17578 9.43546C3.17578 14.0404 6.8656 17.7792 11.4119 17.7792C15.9578 17.7792 19.6483 14.0404 19.6483 9.43546C19.6483 4.83122 15.9578 1.09277 11.4119 1.09277V1.09277ZM11.4119 3.18046C14.8202 3.18046 17.5874 5.98324 17.5874 9.43546C17.5874 12.8884 14.8202 15.6915 11.4119 15.6915C8.00355 15.6915 5.2367 12.8884 5.2367 9.43546C5.2367 5.98324 8.00355 3.18046 11.4119 3.18046V3.18046Z" fill="#D3302F"/>
<path fill-rule="evenodd" clip-rule="evenodd" d="M2.77539 9.43559C2.77539 4.61453 6.64008 0.691406 11.413 0.691406C16.1855 0.691406 20.0509 4.61449 20.0509 9.43559C20.0509 14.2574 16.1855 18.1808 11.413 18.1808C6.64004 18.1808 2.77539 14.2573 2.77539 9.43559ZM11.413 1.49441C7.09333 1.49441 3.57839 5.04819 3.57839 9.43559C3.57839 13.8238 7.09337 17.3778 11.413 17.3778C15.7323 17.3778 19.2479 13.8237 19.2479 9.43559C19.2479 5.04822 15.7323 1.49441 11.413 1.49441ZM11.413 3.58209C8.23126 3.58209 5.63931 6.20024 5.63931 9.43559C5.63931 12.6717 8.23132 15.2902 11.413 15.2902C14.5947 15.2902 17.187 12.6717 17.187 9.43559C17.187 6.20027 14.5947 3.58209 11.413 3.58209ZM4.83631 9.43559C4.83631 5.76652 7.77807 2.77909 11.413 2.77909C15.0478 2.77909 17.99 5.76649 17.99 9.43559C17.99 13.1053 15.0479 16.0932 11.413 16.0932C7.77801 16.0932 4.83631 13.1053 4.83631 9.43559Z" fill="#D3302F"/>
<path fill-rule="evenodd" clip-rule="evenodd" d="M11.4582 18.8198C6.71354 18.6461 4.12609 21.3947 2.75909 25.1591C0.896914 30.2911 1.44553 37.4229 1.44553 40.4955C1.44553 41.8496 2.31296 43.011 3.86322 43.8236C5.69607 44.7841 8.55646 45.2899 11.4207 45.2899C14.2848 45.2899 17.1452 44.7841 18.9787 43.8236C20.5283 43.011 21.3957 41.8496 21.3957 40.4955C21.3957 37.4197 21.8901 30.5626 20.0148 25.483C18.6515 21.7889 16.0979 18.9893 11.4582 18.8197V18.8198ZM11.3837 20.9061C15.0414 21.0392 17.0095 23.3027 18.085 26.2149C19.8682 31.0446 19.3344 37.5705 19.3344 40.4955C19.3344 41.1446 18.7731 41.5801 18.0312 41.9695C16.4295 42.8083 13.9225 43.2026 11.4206 43.2026C8.91873 43.2026 6.41165 42.8083 4.80996 41.9695C4.06813 41.5801 3.50674 41.1446 3.50674 40.4955C3.50674 37.5683 2.91914 30.7675 4.69398 25.8785C5.75156 22.9639 7.71002 20.7709 11.3836 20.9055L11.3837 20.9061Z" fill="#D3302F"/>
<path fill-rule="evenodd" clip-rule="evenodd" d="M11.0567 18.4033L11.4729 18.4185C13.8769 18.5064 15.7634 19.2787 17.2255 20.5241C18.6818 21.7645 19.694 23.454 20.3915 25.344C21.3507 27.9423 21.6982 30.9757 21.8097 33.7245C21.8874 35.6419 21.8503 37.4514 21.821 38.8821C21.8084 39.4971 21.7972 40.0421 21.7972 40.4955C21.7972 42.0497 20.7949 43.3246 19.1652 44.1792L19.165 44.1793C17.2505 45.1823 14.3166 45.6914 11.4206 45.6914C8.52473 45.6914 5.59076 45.1822 3.67685 44.1793L3.6768 44.1793C2.04637 43.3246 1.04402 42.0497 1.04402 40.4955C1.04402 40.0173 1.03011 39.4279 1.01425 38.7558C0.980332 37.3181 0.93748 35.5021 1.00272 33.5859C1.0988 30.7637 1.42897 27.6477 2.38166 25.0222L2.38169 25.0221C3.081 23.0964 4.10435 21.3964 5.59021 20.2C6.99829 19.0662 8.79467 18.4067 11.0567 18.4106V18.4033ZM11.4895 19.2228L11.4435 19.2211C9.15801 19.1374 7.42209 19.7559 6.09382 20.8254C4.75805 21.901 3.8042 23.4575 3.1365 25.2961M11.4895 19.2228C13.7027 19.3125 15.3984 20.0227 16.7048 21.1354C18.0261 22.2607 18.9724 23.818 19.6381 25.6221L19.6382 25.6221C20.5542 28.1034 20.8971 31.0384 21.0073 33.757C21.084 35.6498 21.0479 37.4074 21.0186 38.8297C21.0057 39.4556 20.9942 40.0166 20.9942 40.4955C20.9942 41.6495 20.2617 42.6974 18.7924 43.468C17.04 44.3861 14.2531 44.8884 11.4206 44.8884C8.5882 44.8884 5.80141 44.386 4.04961 43.468C2.57953 42.6974 1.84702 41.6495 1.84702 40.4955C1.84702 39.9861 1.8326 39.3784 1.81635 38.6942C1.78248 37.2679 1.74072 35.5089 1.80525 33.6132C1.9004 30.8185 2.22701 27.8026 3.13647 25.2962M7.31395 22.5578C6.30645 23.3926 5.58556 24.5985 5.0714 26.0155L5.07138 26.0155C4.20606 28.3992 3.9107 31.2704 3.83613 33.9339C3.78712 35.6845 3.83285 37.3033 3.87049 38.636C3.8905 39.3444 3.90823 39.972 3.90823 40.4955C3.90823 40.689 3.98693 40.8646 4.16741 41.0494C4.35573 41.2423 4.63653 41.425 4.99623 41.6138C6.51305 42.4082 8.94334 42.8011 11.4206 42.8011C13.8978 42.8011 16.3281 42.4082 17.8449 41.6138C18.2046 41.425 18.4854 41.2422 18.6738 41.0494C18.8542 40.8646 18.9329 40.689 18.9329 40.4955C18.9329 40.0007 18.9475 39.4171 18.9638 38.7639C18.9968 37.4375 19.037 35.824 18.9772 34.0833C18.8882 31.4975 18.5779 28.709 17.7084 26.354C17.1853 24.9378 16.4559 23.7094 15.4385 22.8208C14.4279 21.938 13.1108 21.3708 11.3691 21.3073L11.2718 21.3038C9.57359 21.2611 8.29422 21.7455 7.31395 22.5578ZM6.80161 21.9394C7.96475 20.9756 9.47133 20.4337 11.3983 20.5043L11.7268 20.5164L11.7279 20.5227C13.4869 20.6492 14.8773 21.2644 15.9668 22.216C17.1168 23.2205 17.9092 24.5799 18.4616 26.0759L18.4616 26.0759C19.3754 28.5506 19.6897 31.4399 19.7797 34.0557C19.8403 35.8167 19.7989 37.4894 19.7658 38.8287C19.7499 39.4697 19.7359 40.0342 19.7359 40.4955C19.7359 40.9512 19.5339 41.3179 19.2483 41.6104C18.9705 41.8949 18.5998 42.1245 18.2178 42.325L18.2175 42.3252C16.5309 43.2085 13.9471 43.6041 11.4206 43.6041C8.8941 43.6041 6.31023 43.2085 4.62368 42.3252L4.62336 42.325C4.24138 42.1245 3.87067 41.8949 3.5929 41.6104C3.30722 41.3179 3.10523 40.9512 3.10523 40.4955C3.10523 40.0133 3.08829 39.4071 3.06886 38.712C3.03114 37.3619 2.98403 35.6762 3.03344 33.9115C3.10878 31.2206 3.40704 28.247 4.31655 25.7416C4.85996 24.244 5.6471 22.8961 6.80161 21.9394Z" fill="#D3302F"/>
<path fill-rule="evenodd" clip-rule="evenodd" d="M21.3252 17.2253H44.7168C45.2858 17.2253 45.7474 16.7572 45.7474 16.1809C45.7474 15.6052 45.2858 15.1372 44.7168 15.1372H21.3252C20.7566 15.1372 20.2949 15.6052 20.2949 16.1809C20.2949 16.7572 20.7566 17.2253 21.3252 17.2253V17.2253Z" fill="#D3302F"/>
<path fill-rule="evenodd" clip-rule="evenodd" d="M24.624 31.2043H44.7156C45.2846 31.2043 45.7462 30.7362 45.7462 30.1599C45.7462 29.5842 45.2846 29.1162 44.7156 29.1162H24.624C24.0554 29.1162 23.5938 29.5842 23.5938 30.1599C23.5938 30.7362 24.0554 31.2043 24.624 31.2043Z" fill="#D3302F"/>
<path fill-rule="evenodd" clip-rule="evenodd" d="M22.8509 10.2355H44.7162C45.2852 10.2355 45.7468 9.76749 45.7468 9.19148C45.7468 8.61547 45.2852 8.14746 44.7162 8.14746H22.8509C22.282 8.14746 21.8203 8.61547 21.8203 9.19148C21.8203 9.76749 22.282 10.2355 22.8509 10.2355V10.2355Z" fill="#D3302F"/>
<path fill-rule="evenodd" clip-rule="evenodd" d="M22.5645 24.2145H44.7168C45.2858 24.2145 45.7471 23.7465 45.7471 23.1701C45.7471 22.5945 45.2857 22.1265 44.7168 22.1265H22.5645C21.9958 22.1265 21.5342 22.5945 21.5342 23.1701C21.5342 23.7465 21.9958 24.2145 22.5645 24.2145V24.2145Z" fill="#D3302F"/>
<path fill-rule="evenodd" clip-rule="evenodd" d="M25.097 38.1935H44.7161C45.285 38.1935 45.7467 37.7255 45.7467 37.1491C45.7467 36.5735 45.285 36.1055 44.7161 36.1055H25.097C24.5281 36.1055 24.0664 36.5735 24.0664 37.1491C24.0664 37.7255 24.5281 38.1935 25.097 38.1935V38.1935Z" fill="#D3302F"/>
<path fill-rule="evenodd" clip-rule="evenodd" d="M22.0218 6.74052H44.7165C45.2855 6.74052 45.7472 6.27251 45.7472 5.6965C45.7472 5.12083 45.2855 4.65283 44.7165 4.65283H22.0218C21.4532 4.65283 20.9912 5.12084 20.9912 5.6965C20.9912 6.27251 21.4532 6.74052 22.0218 6.74052V6.74052Z" fill="#D3302F"/>
<path fill-rule="evenodd" clip-rule="evenodd" d="M20.7904 20.7195H44.7155C45.2841 20.7195 45.7461 20.2515 45.7461 19.6755C45.7461 19.0998 45.2841 18.6318 44.7155 18.6318H20.7904C20.2218 18.6318 19.7598 19.0998 19.7598 19.6755C19.7598 20.2515 20.2218 20.7195 20.7904 20.7195V20.7195Z" fill="#D3302F"/>
<path fill-rule="evenodd" clip-rule="evenodd" d="M24.9584 34.6984H44.717C45.2856 34.6984 45.7476 34.2304 45.7476 33.6544C45.7476 33.0784 45.2856 32.6104 44.717 32.6104H24.9584C24.3894 32.6104 23.9277 33.0784 23.9277 33.6544C23.9277 34.2304 24.3894 34.6984 24.9584 34.6984V34.6984Z" fill="#D3302F"/>
<path fill-rule="evenodd" clip-rule="evenodd" d="M22.8041 13.7306H44.7161C45.2851 13.7306 45.7468 13.2626 45.7468 12.6862C45.7468 12.1106 45.2851 11.6426 44.7161 11.6426H22.8041C22.2354 11.6426 21.7734 12.1106 21.7734 12.6862C21.7734 13.2626 22.2354 13.7306 22.8041 13.7306V13.7306Z" fill="#D3302F"/>
<path fill-rule="evenodd" clip-rule="evenodd" d="M24.0508 27.7096H44.7156C45.2846 27.7096 45.7463 27.2416 45.7463 26.6652C45.7463 26.0896 45.2846 25.6216 44.7156 25.6216H24.0508C23.4822 25.6216 23.0205 26.0896 23.0205 26.6652C23.0205 27.2416 23.4822 27.7096 24.0508 27.7096V27.7096Z" fill="#D3302F"/>
<path fill-rule="evenodd" clip-rule="evenodd" d="M24.7943 41.6886H44.7154C45.2844 41.6886 45.746 41.2206 45.746 40.6442C45.746 40.0686 45.2844 39.6006 44.7154 39.6006H24.7943C24.2253 39.6006 23.7637 40.0686 23.7637 40.6442C23.7637 41.2206 24.2253 41.6886 24.7943 41.6886V41.6886Z" fill="#D3302F"/>
</svg>
