<svg width="34" height="44" viewBox="0 0 34 44" fill="none" xmlns="http://www.w3.org/2000/svg">
<path d="M30.9205 16.9496C27.0796 13.0585 20.8885 13.0129 16.957 16.8123C13.0257 13.0585 6.83467 13.1045 2.9936 16.9953C-0.892664 20.932 -0.892665 27.2949 2.94852 31.2774C2.94852 31.323 2.9936 31.323 2.9936 31.369L14.3361 42.8588C15.0592 43.5913 16.008 43.9575 16.957 43.9575C17.9061 43.9575 18.855 43.5912 19.578 42.8588L30.9205 31.3232L30.9655 31.2776C34.8521 27.3408 34.8068 20.9322 30.9205 16.9497V16.9496ZM29.2035 29.538L17.8159 41.0735C17.3188 41.5771 16.5055 41.5771 16.0085 41.0735L4.71119 29.6753C4.71119 29.6297 4.66611 29.6297 4.66611 29.5837L4.62104 29.538C1.68391 26.5627 1.68391 21.7102 4.62104 18.7349C7.55817 15.7596 12.3485 15.7596 15.2857 18.7349L15.9634 19.4214C16.1894 19.6503 16.5055 19.7876 16.822 19.7876C17.1385 19.7876 17.4547 19.6503 17.6807 19.4214L18.2683 18.7805L18.3587 18.6889C21.2959 15.7136 26.0862 15.7136 29.0234 18.6889C32.1409 21.7102 32.1409 26.5627 29.2037 29.5378L29.2035 29.538Z" fill="#D3302F"/>
<path d="M16.9575 8.48121C17.6352 8.48121 18.1777 7.932 18.1777 7.24518V1.66084C18.1777 0.974329 17.6355 0.424805 16.9575 0.424805C16.2798 0.424805 15.7373 0.974018 15.7373 1.66084V7.19989C15.7373 7.93206 16.2798 8.48129 16.9575 8.48129V8.48121Z" fill="#D3302F"/>
<path d="M25.4523 10.1751C25.5878 10.2208 25.7687 10.2667 25.9043 10.2667C26.4014 10.2667 26.8534 9.99213 27.034 9.48858L29.1576 4.36143C29.4287 3.72058 29.1125 2.98807 28.4799 2.71349C27.8472 2.43889 27.1241 2.75915 26.8531 3.4L24.7742 8.52683C24.5031 9.168 24.8196 9.90052 25.4522 10.1751H25.4523Z" fill="#D3302F"/>
<path d="M6.87941 9.48831C7.06003 9.9462 7.51204 10.2665 8.00914 10.2665C8.14468 10.2665 8.32562 10.2208 8.46116 10.1748C9.09379 9.90021 9.36486 9.16774 9.13887 8.52688L7.06001 3.40005C6.78892 2.75921 6.06585 2.48462 5.4332 2.71354C4.80057 2.98815 4.5295 3.72062 4.75549 4.36148L6.87941 9.48831Z" fill="#D3302F"/>
</svg>
