<svg width="48" height="46" viewBox="0 0 48 46" fill="none" xmlns="http://www.w3.org/2000/svg">
<path d="M37.3873 4.88722C36.0265 4.88722 34.6864 5.17699 33.4503 5.71152C31.3546 2.90059 28.0153 1.06836 24.2469 1.06836C20.4795 1.06836 17.1402 2.89993 15.0442 5.71053C13.8065 5.17696 12.4658 4.88719 11.1066 4.88719C5.64138 4.88719 1.19531 9.33284 1.19531 14.7985C1.19531 19.6012 4.63044 23.614 9.17191 24.5166V40.6608C9.17191 41.0684 9.38754 41.4452 9.73817 41.6518C10.1121 41.8707 16.1153 45.3149 24.5761 45.3149C28.9242 45.3149 33.9229 44.4038 39.1388 41.6787C39.5179 41.4812 39.7559 41.0884 39.7559 40.6608L39.7562 24.4196C44.1161 23.3441 47.2968 19.3715 47.2968 14.7985C47.2974 9.33235 42.8511 4.88636 37.3863 4.88636L37.3873 4.88722ZM39.7573 22.0326V21.1646C39.7573 20.53 39.2425 20.0165 38.6083 20.0165C37.9746 20.0165 37.4601 20.5306 37.4601 21.1646V39.9569C25.1883 46.022 14.0661 41.26 11.4702 39.9682V24.6951C13.2376 24.632 14.9484 24.1082 16.4387 23.1582C16.9732 22.8163 17.1299 22.1069 16.7896 21.5714C16.4477 21.0359 15.7374 20.8815 15.2038 21.2205C13.9816 21.9998 12.5648 22.4119 11.1085 22.4119C6.90962 22.4119 3.49389 18.9962 3.49389 14.7979C3.49389 10.599 6.90929 7.1833 11.1085 7.1833C12.0517 7.1833 12.9819 7.36525 13.8537 7.70003C13.1615 9.17702 12.7626 10.8169 12.7626 12.5526C12.7626 13.1866 13.2774 13.7007 13.9113 13.7007C14.5449 13.7007 15.0594 13.186 15.0594 12.5526C15.0594 10.7904 15.5671 9.14859 16.4306 7.74827C16.4322 7.74535 16.4361 7.74373 16.4384 7.73952C16.4393 7.73693 16.439 7.73499 16.4403 7.73143C18.0614 5.11544 20.9504 3.36444 24.2476 3.36444C29.3139 3.36444 33.4353 7.48626 33.4353 12.5521C33.4353 15.3181 32.2059 17.9098 30.0632 19.6627C29.5721 20.0645 29.5002 20.7884 29.9016 21.2789C30.128 21.5564 30.4582 21.6998 30.7917 21.6998C31.0471 21.6998 31.3042 21.615 31.5175 21.4408C34.1957 19.2502 35.7333 16.0102 35.7333 12.5523C35.7333 10.8166 35.335 9.17669 34.6428 7.69969C35.5135 7.36557 36.4439 7.18296 37.3884 7.18296C41.5866 7.18296 45.002 10.5987 45.002 14.7976C45.0011 18.1162 42.8212 21.0229 39.7577 22.0325L39.7573 22.0326Z" fill="#D3302F"/>
<path fill-rule="evenodd" clip-rule="evenodd" d="M14.9208 5.25138C17.0925 2.48312 20.4595 0.691406 24.2466 0.691406C28.0347 0.691406 31.4016 2.48365 33.5732 5.25212C34.4857 4.88737 35.4494 4.64964 36.4343 4.55571L36.3812 4.50941H37.3861C43.059 4.50941 47.674 9.12408 47.6733 14.7983C47.6733 19.446 44.5109 23.4934 40.1328 24.7101L40.1324 40.6606C40.1324 41.2285 39.8165 41.7501 39.3126 42.0126C34.0375 44.7686 28.9782 45.6914 24.5759 45.6914C16.0189 45.6914 9.94728 42.2106 9.54766 41.9767L9.54673 41.9762C9.08118 41.7019 8.79495 41.2016 8.79495 40.6606V24.8208C4.23227 23.7691 0.818359 19.6772 0.818359 14.7983C0.818359 9.12455 5.43311 4.51024 11.1064 4.51024C12.4197 4.51024 13.7145 4.77049 14.9208 5.25138ZM37.5147 5.26375H37.3871C36.0798 5.26375 34.7904 5.54217 33.5996 6.05711L33.3261 6.17537L33.1481 5.9365C31.1195 3.2157 27.8897 1.4449 24.2466 1.4449C20.6046 1.4449 17.3748 3.21506 15.346 5.93554L15.1682 6.17408L14.8949 6.05629C13.7021 5.54214 12.4121 5.26373 11.1064 5.26373C5.84923 5.26373 1.57185 9.54071 1.57185 14.7983C1.57185 19.4173 4.87607 23.2785 9.24514 24.1469L9.54844 24.2072V40.6606C9.54844 40.9347 9.69341 41.188 9.92902 41.3269C10.285 41.5351 16.2173 44.9379 24.5759 44.9379C28.8698 44.9379 33.8076 44.0387 38.9641 41.3445C39.2185 41.212 39.3789 40.948 39.3789 40.6605L39.3793 24.1243L39.6658 24.0537C43.8594 23.0191 46.9198 19.1959 46.9198 14.7982C46.9204 9.58313 42.7124 5.33283 37.5147 5.26375ZM16.7824 7.8942L16.782 7.89548L16.7699 7.91793C16.759 7.93818 16.7473 7.95558 16.736 7.97027C15.9163 9.30907 15.436 10.874 15.436 12.5524C15.436 13.3938 14.7529 14.0773 13.9111 14.0773C13.0694 14.0773 12.3857 13.3947 12.3857 12.5524C12.3857 10.9054 12.7332 9.34261 13.3427 7.91846C12.6231 7.68475 11.8694 7.55983 11.1083 7.55983C7.11716 7.55983 3.87042 10.8069 3.87042 14.7977C3.87042 18.7879 7.11746 22.035 11.1083 22.035C12.4932 22.035 13.8397 21.6431 15.0011 20.9026C15.709 20.4528 16.6527 20.6569 17.107 21.3685C17.5585 22.0791 17.3511 23.0215 16.6415 23.4754C15.196 24.3968 13.551 24.932 11.8467 25.0522V39.733C14.7348 41.1265 25.3592 45.4031 37.0832 39.7216V21.1644C37.0832 20.3222 37.7664 19.6395 38.608 19.6395C39.4499 19.6395 40.1338 20.3212 40.1338 21.1644V21.4911C42.7835 20.3952 44.6242 17.7685 44.6251 14.7974M16.7824 7.8942C18.3425 5.40304 21.102 3.74098 24.2474 3.74098C29.1056 3.74098 33.0583 7.69411 33.0583 12.5519C33.0583 15.2047 31.8798 17.6895 29.8245 19.3709C29.1722 19.9045 29.0767 20.8658 29.6098 21.5172C29.9112 21.8865 30.3506 22.0763 30.7915 22.0763C31.1306 22.0763 31.4726 21.9635 31.7556 21.7324C34.5211 19.4704 36.1098 16.1232 36.1098 12.5521C36.1098 10.9052 35.7628 9.34241 35.1534 7.91819C35.8723 7.68481 36.6262 7.5595 37.3882 7.5595C41.3783 7.5595 44.625 10.8066 44.6251 14.7974M16.1199 7.53277C17.8061 4.81164 20.8132 2.98748 24.2474 2.98748C29.5217 2.98748 33.8118 7.27799 33.8118 12.5519C33.8118 15.431 32.5316 18.1298 30.3015 19.9541C29.9716 20.224 29.9232 20.7105 30.193 21.0401C30.3442 21.2255 30.5655 21.3228 30.7915 21.3228C30.9631 21.3228 31.1352 21.2661 31.2788 21.149C33.8696 19.0298 35.3563 15.8968 35.3563 12.5521C35.3563 10.8749 34.9716 9.28928 34.3015 7.85936L34.1297 7.4928L34.5077 7.34775C35.419 6.99798 36.3952 6.80601 37.3882 6.80601C41.7945 6.80601 45.3786 10.3905 45.3786 14.7974C45.3775 18.282 43.09 21.3307 39.8754 22.3901L39.3803 22.5532V21.1644C39.3803 20.7383 39.0347 20.393 38.608 20.393C38.1824 20.393 37.8367 20.7385 37.8367 21.1644V40.1907L37.6269 40.2944C25.1944 46.4389 13.9324 41.6142 11.3021 40.3053L11.0932 40.2013V24.3314L11.4565 24.3184C13.158 24.2577 14.8032 23.7535 16.2358 22.8405C16.5949 22.6105 16.7004 22.1338 16.4716 21.7735C16.242 21.4144 15.7647 21.3101 15.4056 21.5382C14.1227 22.3561 12.6358 22.7884 11.1083 22.7884C6.70136 22.7884 3.11693 19.2041 3.11693 14.7977C3.11693 10.3908 6.701 6.80634 11.1083 6.80634C12.0999 6.80634 13.0758 6.99763 13.9886 7.34811L14.3664 7.4932L14.1947 7.8597C13.5245 9.28971 13.1392 10.8752 13.1392 12.5524C13.1392 12.978 13.485 13.3238 13.9111 13.3238C14.3366 13.3238 14.6825 12.9777 14.6825 12.5524C14.6825 10.7244 15.2071 9.02142 16.0982 7.56903L16.0993 7.56587L16.1199 7.53277Z" fill="#D3302F"/>
<path d="M24.7226 37.8533C19.5582 38.7185 15.4247 36.3207 15.3832 36.2957C14.839 35.9687 14.1351 36.1468 13.8103 36.6904C13.4843 37.234 13.6598 37.9401 14.204 38.2665C14.3698 38.3665 17.7266 40.3425 22.4018 40.3425C23.2623 40.3425 24.1659 40.2751 25.1052 40.1175C25.7294 40.0129 26.1519 39.4191 26.0467 38.7939C25.9411 38.1687 25.3454 37.7501 24.7222 37.8533L24.7226 37.8533Z" fill="#D3302F"/>
<path fill-rule="evenodd" clip-rule="evenodd" d="M13.4879 36.4967C13.9193 35.7749 14.8547 35.538 15.5781 35.9726L15.5783 35.9728C15.5783 35.9728 15.5784 35.9728 15.5785 35.9729C15.5946 35.9822 16.6055 36.5672 18.2387 37.0467C19.8856 37.5302 22.1506 37.9022 24.6612 37.4816L24.6616 37.4843L24.6614 37.4815C25.4869 37.3447 26.2784 37.8985 26.419 38.731L26.419 38.7312C26.5587 39.5612 25.9983 40.3498 25.1684 40.4889C24.2074 40.6502 23.2829 40.7191 22.4026 40.7191C17.6322 40.7191 14.2071 38.7077 14.0106 38.5892C14.0105 38.5891 14.0103 38.589 14.0102 38.5889L14.2048 38.2664L14.0111 38.5895C14.0109 38.5894 14.0108 38.5893 14.0106 38.5892C13.2879 38.1554 13.0554 37.2181 13.4879 36.4967ZM13.4879 36.4967C13.4878 36.4968 13.4878 36.4969 13.4877 36.497L13.8111 36.6902L13.488 36.4965C13.488 36.4966 13.4879 36.4967 13.4879 36.4967ZM15.1897 36.6183C14.8247 36.3992 14.3526 36.5184 14.1346 36.8835L14.1342 36.884C13.9149 37.2496 14.0333 37.7242 14.3986 37.9433L14.3995 37.9438C14.5393 38.0282 17.8262 39.9656 22.4026 39.9656C23.2434 39.9656 24.1261 39.8998 25.0436 39.7458L25.0437 39.7458C25.4621 39.6757 25.7467 39.2768 25.676 38.8565M15.19 36.6185C15.2682 36.6654 19.4947 39.1111 24.7856 38.2248L24.7856 38.2247C25.2062 38.1556 25.6054 38.4389 25.676 38.8563" fill="#D3302F"/>
</svg>
