<svg width="35" height="46" viewBox="0 0 35 46" fill="none" xmlns="http://www.w3.org/2000/svg">
<path fill-rule="evenodd" clip-rule="evenodd" d="M18.7555 4.56139C12.3523 4.56139 7.14245 9.77104 7.14245 16.1745C7.14245 22.5778 12.3524 27.7876 18.7555 27.7876C25.1588 27.7876 30.3686 22.5779 30.3686 16.1745C30.3686 9.77095 25.1587 4.56139 18.7555 4.56139V4.56139ZM18.7555 28.5638C11.9239 28.5638 6.36621 23.0063 6.36621 16.1745C6.36621 9.34281 11.9241 3.78516 18.7555 3.78516C25.5876 3.78516 31.144 9.34308 31.144 16.1745C31.144 23.0058 25.5871 28.5638 18.7555 28.5638Z" fill="#D3302F"/>
<path fill-rule="evenodd" clip-rule="evenodd" d="M18.7553 4.15421C12.1276 4.15421 6.73477 9.54672 6.73477 16.1747C6.73477 22.8027 12.1273 28.1952 18.7553 28.1952C25.3831 28.1952 30.7749 22.8023 30.7749 16.1747C30.7749 9.54694 25.3835 4.15421 18.7553 4.15421ZM5.99707 16.1747C5.99707 9.13929 11.7201 3.4165 18.7553 3.4165C25.7911 3.4165 31.5126 9.13961 31.5126 16.1747C31.5126 23.2097 25.7906 28.9329 18.7553 28.9329C11.7199 28.9329 5.99707 23.2102 5.99707 16.1747ZM6.77331 16.1747C6.77331 9.56752 12.1483 4.19274 18.7553 4.19274C25.3621 4.19274 30.7372 9.56743 30.7372 16.1747C30.7372 22.7819 25.3622 28.1566 18.7553 28.1566C12.1484 28.1566 6.77331 22.7817 6.77331 16.1747ZM18.7553 4.93044C12.5557 4.93044 7.51101 9.97495 7.51101 16.1747C7.51101 22.3743 12.5558 27.4189 18.7553 27.4189C24.9548 27.4189 29.9995 22.3744 29.9995 16.1747C29.9995 9.97486 24.9547 4.93044 18.7553 4.93044Z" fill="#D3302F"/>
<path fill-rule="evenodd" clip-rule="evenodd" d="M20.004 28.4995C19.8392 28.4995 19.6854 28.3936 19.6339 28.2282C19.6018 28.1267 19.5783 28.0271 19.5633 27.9316C19.4028 26.9108 19.3468 25.5387 19.9868 24.8022C20.2824 24.4616 20.7048 24.286 21.199 24.2937C21.5582 24.2993 21.8866 24.5392 22.2332 24.7935C22.4556 24.9561 22.8267 25.2278 22.9662 25.1869C23.012 25.1733 23.0946 25.0813 23.1764 24.8673C23.2736 24.6099 23.4586 24.4343 23.7101 24.3594C24.0479 24.2594 24.6778 24.2594 26.254 25.4094C26.4278 25.5356 26.4653 25.7787 26.339 25.9518C26.2128 26.1249 25.97 26.163 25.7969 26.0368C24.3886 25.01 23.9742 25.0914 23.9315 25.1041C23.9217 25.1072 23.9143 25.109 23.901 25.1432C23.7384 25.5741 23.4978 25.8392 23.1862 25.9315C22.6787 26.0816 22.1982 25.7301 21.7746 25.4199C21.5847 25.281 21.2983 25.0715 21.1871 25.0698C20.9122 25.0666 20.7188 25.1425 20.5712 25.3111C20.2306 25.7042 20.1414 26.6156 20.3295 27.8113C20.3379 27.8683 20.3526 27.9299 20.3729 27.9943C20.438 28.1985 20.3243 28.4167 20.119 28.4814C20.0809 28.4937 20.041 28.4993 20.0025 28.4993L20.004 28.4995Z" fill="#D3302F"/>
<path fill-rule="evenodd" clip-rule="evenodd" d="M21.1934 24.6622C20.7948 24.656 20.4815 24.7948 20.2656 25.0436C20.0206 25.3256 19.8859 25.7604 19.8427 26.29C19.8 26.8123 19.85 27.3786 19.9279 27.8739M19.7085 24.5601C20.0837 24.1277 20.6153 23.9154 21.2049 23.9246C21.466 23.9287 21.6978 24.0178 21.897 24.1259C22.0907 24.231 22.2775 24.3681 22.4447 24.4907L22.4511 24.4954C22.5651 24.5788 22.6999 24.6772 22.8213 24.7503C22.8226 24.7511 22.824 24.7519 22.8253 24.7527C22.8275 24.747 22.8298 24.7412 22.8321 24.7352L23.1766 24.867L22.8315 24.7366C22.9674 24.377 23.2376 24.115 23.605 24.0056C24.1191 23.8534 24.8779 23.9484 26.4716 25.1111C26.8109 25.358 26.8828 25.8321 26.6372 26.1689C26.3911 26.5064 25.9177 26.5809 25.5798 26.3345C24.8904 25.8319 24.4651 25.6162 24.2233 25.5259C24.1954 25.5155 24.1704 25.5069 24.148 25.4998C23.9589 25.8807 23.6803 26.1696 23.2912 26.2849C22.9224 26.3939 22.5799 26.3131 22.296 26.1836C22.0245 26.0597 21.7725 25.8751 21.5692 25.7262M21.5569 25.7172C21.46 25.6463 21.3505 25.5664 21.2526 25.5038C21.2052 25.4734 21.1678 25.4518 21.1411 25.4387C20.9782 25.4435 20.9057 25.4892 20.8495 25.5531C20.7538 25.6641 20.6579 25.8982 20.6194 26.2955C20.5819 26.6821 20.6032 27.1763 20.6941 27.7537L20.6947 27.7573C20.6997 27.7915 20.7093 27.8338 20.7249 27.8831L20.3731 27.994L20.7245 27.882C20.8518 28.2816 20.6292 28.7066 20.231 28.8326C20.1542 28.8572 20.0769 28.8677 20.0042 28.8678C19.6847 28.8678 19.3838 28.6636 19.2822 28.3384M20.0027 28.1301C20.0054 28.1301 20.0069 28.1298 20.0069 28.1298L20.0083 28.1293C20.0201 28.1256 20.0244 28.1144 20.0216 28.1059L20.0213 28.1048C19.9965 28.0261 19.9769 27.9458 19.9651 27.8666M20.0027 28.1301C19.9996 28.1298 19.9957 28.1288 19.9922 28.1263C19.9904 28.125 19.9892 28.1237 19.9884 28.1226C19.9877 28.1216 19.987 28.1204 19.9864 28.1184L19.9857 28.1163C19.959 28.032 19.9399 27.9503 19.9279 27.8739M21.545 24.7742C21.4035 24.6974 21.2916 24.6637 21.1934 24.6622L21.1992 24.2934M21.545 24.7742C21.6893 24.8525 21.8375 24.9602 22.0152 25.0906ZM26.0368 25.7071C24.4791 24.5706 23.9772 24.6649 23.8153 24.7127C23.6799 24.7531 23.5802 24.8422 23.5216 24.9973L23.5211 24.9987C23.4725 25.1259 23.418 25.2321 23.3586 25.3157C23.3289 25.3574 23.2941 25.399 23.2535 25.4354C23.2168 25.4685 23.1557 25.5151 23.0716 25.5401L23.0702 25.5406C22.9093 25.5877 22.7584 25.5351 22.6919 25.5095C22.6049 25.4761 22.5174 25.4284 22.4406 25.3822C22.2892 25.291 22.1309 25.1752 22.0226 25.096L22.0152 25.0906M24.4813 24.8348C24.8094 24.9573 25.2955 25.2143 26.0144 25.7385C26.0228 25.7445 26.0348 25.7429 26.0412 25.7342C26.0479 25.7249 26.0447 25.7128 26.0368 25.7071M24.4813 24.8348C24.1554 24.7131 23.9538 24.7126 23.8271 24.75ZM23.8271 24.75L23.8188 24.7526ZM23.8188 24.7526C23.8255 24.7504 23.7924 24.7601 23.759 24.7768ZM23.759 24.7768C23.7175 24.7977 23.6794 24.826 23.6467 24.8615ZM23.6467 24.8615C23.5926 24.9201 23.5673 24.9839 23.5573 25.0096ZM23.5573 25.0096L23.5561 25.0127ZM23.5561 25.0127C23.4164 25.3829 23.2418 25.53 23.0818 25.5775Z" fill="#D3302F"/>
<path fill-rule="evenodd" clip-rule="evenodd" d="M7.17261 19.7135C7.0586 19.7135 6.94493 19.6635 6.86835 19.5667C6.7351 19.3988 6.76307 19.1543 6.93095 19.0211C8.37392 17.875 8.40615 17.435 8.40508 17.3889C8.40508 17.3777 8.40403 17.3711 8.37466 17.3497C8.00079 17.0801 7.80634 16.779 7.7983 16.4548C7.78431 15.926 8.2484 15.5528 8.65759 15.2237C8.8405 15.0765 9.11749 14.8541 9.14792 14.7467C9.22101 14.491 9.20038 14.2875 9.08427 14.1056C8.83771 13.7206 8.15117 13.4223 7.15129 13.2649C6.939 13.2317 6.79456 13.033 6.82778 12.8211C6.86136 12.6091 7.06036 12.4647 7.27159 12.4979C8.53058 12.6955 9.36053 13.0956 9.73862 13.6873C9.97609 14.0595 10.0289 14.4875 9.8953 14.959C9.79633 15.3041 9.47983 15.5587 9.14408 15.8287C8.9297 16.0012 8.57088 16.29 8.57472 16.4345C8.57577 16.4824 8.64361 16.5859 8.82862 16.7198C9.05315 16.8814 9.17555 17.1066 9.1815 17.371C9.18989 17.7313 9.01572 18.3577 7.41325 19.6293C7.34261 19.6859 7.25762 19.7136 7.17264 19.7136L7.17261 19.7135Z" fill="#D3302F"/>
<path fill-rule="evenodd" clip-rule="evenodd" d="M7.19182 12.8788C7.19028 12.8896 7.19746 12.8991 7.20801 12.9007C7.72793 12.9826 8.1823 13.1033 8.54705 13.2619C8.90475 13.4174 9.21463 13.6259 9.39458 13.907C9.58008 14.1975 9.59732 14.5158 9.50225 14.8483C9.47058 14.9593 9.39885 15.0458 9.36278 15.0875C9.31606 15.1414 9.26089 15.195 9.20811 15.2431C9.10489 15.3372 8.98414 15.4344 8.89532 15.5059L8.88856 15.5113C8.67773 15.6809 8.49058 15.8331 8.35347 15.9994C8.22115 16.1597 8.16289 16.3009 8.16671 16.4453C8.17081 16.6107 8.26763 16.8183 8.59011 17.0508L8.59108 17.0515L8.59221 17.0524C8.60993 17.0652 8.66262 17.1034 8.7046 17.1645C8.76966 17.2592 8.77343 17.3517 8.77361 17.3858C8.77522 17.5208 8.71829 17.7198 8.50757 18.0096C8.29229 18.3058 7.8956 18.7259 7.16004 19.3102C7.1519 19.3166 7.15019 19.3291 7.15693 19.3376C7.15893 19.3401 7.16126 19.342 7.16333 19.343C7.16582 19.3442 7.16899 19.3449 7.1723 19.3449H7.17362C7.17553 19.3448 7.17702 19.3445 7.17811 19.3441C7.17929 19.3437 7.18056 19.3431 7.18217 19.3418L7.18366 19.3406C8.77198 18.0802 8.81647 17.5533 8.81243 17.3799C8.80924 17.2378 8.74893 17.1174 8.61286 17.0195L8.61199 17.0189C8.50201 16.9392 8.41353 16.8593 8.34818 16.7803C8.31554 16.7408 8.28432 16.6964 8.25953 16.6475C8.23711 16.6033 8.20758 16.5314 8.20564 16.4428L8.57441 16.4347L8.20568 16.4445C8.20567 16.4439 8.20566 16.4434 8.20564 16.4428C8.20183 16.2753 8.29191 16.1433 8.33336 16.0864C8.38813 16.0111 8.45678 15.9389 8.52128 15.8768C8.64972 15.753 8.80408 15.6288 8.90874 15.5447L8.9126 15.5416C9.08494 15.403 9.22746 15.2876 9.3407 15.1683C9.45149 15.0516 9.51313 14.9524 9.54029 14.858C9.64842 14.4759 9.60151 14.159 9.42749 13.8862C9.42745 13.8861 9.42753 13.8863 9.42749 13.8862C9.13845 13.4338 8.44755 13.0562 7.21409 12.8626C7.20407 12.861 7.19369 12.868 7.19182 12.8788ZM8.77361 17.3858C8.77362 17.387 8.77362 17.3881 8.77362 17.3892H8.40478L8.77352 17.3806C8.77356 17.3823 8.77359 17.384 8.77361 17.3858ZM7.32847 12.1338C6.91616 12.069 6.52857 12.3507 6.46316 12.7636C6.39845 13.1764 6.67986 13.5646 7.09362 13.6295C7.57359 13.705 7.96274 13.8122 8.25287 13.9384C8.54987 14.0675 8.70653 14.2006 8.7732 14.3046C8.81633 14.3722 8.84025 14.4536 8.80325 14.6067C8.78366 14.629 8.75302 14.6597 8.71114 14.6979C8.62521 14.7763 8.51961 14.8613 8.4261 14.9366C8.42182 14.94 8.41751 14.9435 8.41318 14.947C8.21699 15.1047 7.97395 15.3001 7.78441 15.5299C7.58592 15.7705 7.41917 16.0802 7.42925 16.4645C7.43943 16.8703 7.64737 17.2142 7.96588 17.4957C7.95077 17.5192 7.93263 17.5459 7.91087 17.5759C7.74957 17.7978 7.40868 18.1706 6.70132 18.7324M7.32847 12.1338C8.61292 12.3354 9.58201 12.7579 10.0491 13.489C10.3499 13.9602 10.4087 14.4994 10.2499 15.0598L10.2496 15.0609C10.1777 15.3116 10.0316 15.5121 9.87564 15.6763C9.72492 15.835 9.54542 15.9793 9.38443 16.1088L9.37494 16.1164C9.26525 16.2046 9.13525 16.3096 9.03322 16.4079C9.03223 16.4089 9.03124 16.4098 9.03025 16.4108C9.03488 16.4142 9.03967 16.4178 9.04462 16.4213L8.82831 16.7201L9.04376 16.4207C9.35673 16.6459 9.54125 16.9763 9.54994 17.363C9.54995 17.3631 9.54994 17.3629 9.54994 17.363C9.56257 17.91 9.25854 18.6359 7.64222 19.9185C7.50363 20.0291 7.337 20.0827 7.17233 20.0827H6.99708L6.97599 20.0568C6.82504 20.0164 6.68414 19.929 6.57886 19.7959C6.31943 19.4687 6.3739 18.9924 6.70132 18.7324" fill="#D3302F"/>
<path fill-rule="evenodd" clip-rule="evenodd" d="M18.7001 14.0447C18.4623 14.0447 18.2157 14.0083 17.9587 13.9352C17.4662 13.795 17.0689 13.3015 16.6493 12.7794C16.2541 12.2887 15.8082 11.7292 15.443 11.742C15.1965 11.7487 14.9415 12.0316 14.7708 12.268C14.5467 12.5804 14.2329 12.7454 13.8671 12.7454H13.864C13.4848 12.7447 12.3332 12.7419 9.34854 8.56512C9.22404 8.3906 9.26461 8.14824 9.43947 8.02373C9.61329 7.89888 9.856 7.93945 9.98051 8.11396C12.5346 11.6886 13.6003 11.9687 13.866 11.9694H13.867C13.952 11.9694 14.0429 11.9501 14.1419 11.8141C14.5445 11.2556 14.9627 10.9782 15.423 10.9663C16.1704 10.9485 16.7464 11.6619 17.2542 12.2928C17.5648 12.6786 17.9166 13.1157 18.1712 13.1885C18.6758 13.3322 19.1004 13.2808 19.4694 13.0322C20.257 12.5002 20.8131 11.0537 21.0365 8.95884C21.1023 8.34576 20.8869 7.61274 20.6788 6.90383C20.3504 5.78469 20.0094 4.62741 20.9638 4.07733C21.1498 3.97031 21.3873 4.03396 21.4947 4.21966C21.601 4.40537 21.537 4.64284 21.352 4.74986C20.9557 4.97824 21.1145 5.63328 21.4237 6.6849C21.6423 7.43018 21.8909 8.2748 21.8091 9.04101C21.6332 10.6869 21.161 12.8276 19.9031 13.676C19.5393 13.9216 19.1368 14.045 18.6999 14.0447L18.7001 14.0447Z" fill="#D3302F"/>
<path fill-rule="evenodd" clip-rule="evenodd" d="M21.1746 4.40341C21.169 4.39449 21.1571 4.39122 21.1473 4.39683C20.9698 4.4992 20.866 4.62025 20.8029 4.75239C20.7374 4.88959 20.7057 5.06031 20.7087 5.27176C20.7148 5.70897 20.8638 6.22546 21.0323 6.79971C21.0367 6.81479 21.0412 6.82994 21.0457 6.84515C21.2441 7.52067 21.4765 8.31179 21.4029 8.99783M21.1746 4.40341C21.1769 4.40778 21.1776 4.41251 21.1761 4.41814C21.1745 4.42408 21.1713 4.42782 21.1669 4.43034C20.7728 4.65753 20.7235 5.08078 20.7555 5.44112C20.7882 5.80809 20.9174 6.27133 21.0694 6.78847M20.7795 3.75736C21.1417 3.54906 21.6043 3.6728 21.8136 4.03481L21.8144 4.03616C22.0216 4.39798 21.8972 4.86014 21.5363 5.06891C21.5362 5.06895 21.5356 5.06929 21.5354 5.06938C21.5293 5.07187 21.4656 5.09798 21.4903 5.37573C21.5153 5.65624 21.6201 6.04624 21.7772 6.58063C21.7811 6.59396 21.7851 6.60757 21.7891 6.62103C22.0005 7.34156 22.2649 8.24266 22.1755 9.07994C22.086 9.9172 21.9199 10.895 21.6095 11.7795C21.3019 12.6558 20.8348 13.4919 20.1091 13.9815C19.6848 14.2679 19.2105 14.4136 18.6997 14.4133C18.4239 14.4133 18.1433 14.3711 17.8574 14.2898C17.528 14.1959 17.2536 13.9912 17.02 13.7655C16.7892 13.5425 16.5722 13.2725 16.3677 13.018L16.3616 13.0105L16.3557 13.0031C16.1557 12.7547 15.9629 12.5153 15.7782 12.3368C15.6857 12.2475 15.6071 12.1853 15.5429 12.1475C15.4818 12.1117 15.4551 12.1106 15.4551 12.1105L15.4526 12.1105C15.4536 12.1105 15.454 12.1101 15.4526 12.1105C15.445 12.1128 15.401 12.1264 15.3206 12.1966C15.2346 12.2716 15.147 12.3764 15.0695 12.4837C14.7798 12.8873 14.3577 13.114 13.8667 13.114H13.8636C13.7548 13.1138 13.5674 13.1131 13.3068 13.0308C13.052 12.9504 12.7433 12.7979 12.3639 12.5178C11.6102 11.9615 10.5497 10.8808 9.04807 8.77933C8.8053 8.43905 8.88418 7.96633 9.22454 7.72347C9.56478 7.47959 10.0378 7.55967 10.2803 7.89929M18.6997 13.678L18.6999 13.6756C19.0626 13.6759 19.3933 13.5747 19.6963 13.3701C20.2285 13.0112 20.6265 12.3527 20.9135 11.5351C21.1976 10.7256 21.3555 9.81018 21.442 9.00159C21.5145 8.32217 21.2933 7.55192 21.0694 6.78847M18.6997 13.678L18.6999 13.6756C18.5001 13.6756 18.2874 13.6451 18.0593 13.5802C17.8963 13.5338 17.7258 13.4216 17.5326 13.235C17.3391 13.048 17.1497 12.8134 16.9364 12.548C16.9294 12.5394 16.9222 12.5304 16.9152 12.5217C16.7269 12.2878 16.5092 12.0175 16.2908 11.8064C16.1768 11.6961 16.0507 11.5902 15.9163 11.5114C15.7841 11.4337 15.6178 11.3669 15.4311 11.3731M20.7795 3.75736C20.48 3.92999 20.2683 4.15998 20.1372 4.43445ZM20.1372 4.43445C20.0085 4.70392 19.967 4.99561 19.971 5.28213ZM19.971 5.28213C19.9787 5.8297 20.1572 6.43776 20.3149 6.97471ZM20.3149 6.97471L20.3245 7.00745ZM20.3245 7.00745C20.5395 7.73994 20.7257 8.39462 20.6694 8.91927ZM9.66022 8.32028C9.65855 8.32066 9.65668 8.32136 9.65429 8.32307L9.65305 8.32396C9.6442 8.33026 9.64235 8.34212 9.64844 8.35066C11.1314 10.426 12.1389 11.4349 12.802 11.9243C13.131 12.1672 13.3678 12.2765 13.5289 12.3273C13.6831 12.376 13.7822 12.3762 13.8627 12.3763M9.66022 8.32028C9.66216 8.31985 9.66463 8.31971 9.6674 8.32017ZM9.6674 8.32017C9.67281 8.32107 9.67676 8.32359 9.67988 8.32795ZM9.67988 8.32795C10.966 10.128 11.892 11.1197 12.5445 11.6648ZM12.5445 11.6648C13.1913 12.205 13.6065 12.3374 13.8647 12.338ZM13.8429 11.5974C14.2779 10.9941 14.7892 10.6135 15.4131 10.5974C15.9142 10.5854 16.3315 10.8207 16.6665 11.1047C16.9957 11.3836 17.2859 11.7442 17.5334 12.0517L17.5411 12.0613C17.5412 12.0613 17.5411 12.0613 17.5411 12.0613C17.6989 12.2572 17.8545 12.4501 18.0005 12.6035C18.073 12.6797 18.1365 12.7389 18.1902 12.7806C18.2422 12.821 18.2686 12.8321 18.2719 12.8335C18.2722 12.8336 18.272 12.8335 18.2719 12.8335C18.6921 12.9531 19.0002 12.9029 19.2626 12.7263C19.5666 12.5209 19.8668 12.1069 20.1199 11.4489C20.3702 10.7981 20.5599 9.94623 20.6694 8.91927M13.8429 11.5974C13.7678 11.5844 13.5116 11.5113 13.0175 11.0986C12.4322 10.6098 11.5481 9.67371 10.2803 7.89929M20.8084 11.7138C20.5307 12.4357 20.159 13.011 19.6755 13.3376C19.2 13.658 18.6585 13.7107 18.0698 13.543C17.9407 13.5061 17.8272 13.4329 17.7374 13.3631C17.6438 13.2903 17.5522 13.2025 17.4662 13.1121C17.2972 12.9346 17.1239 12.7193 16.9725 12.5313L16.9665 12.5239C16.7079 12.2026 16.4588 11.8956 16.1896 11.6675C15.923 11.4415 15.678 11.3291 15.4318 11.3348C15.1355 11.3426 14.8106 11.5164 14.4408 12.0295L14.4398 12.0308C14.3632 12.1361 14.2712 12.2213 14.1577 12.2754C14.0435 12.3299 13.9386 12.338 13.8667 12.338L13.8647 12.338M20.8084 11.7138C21.0888 10.9847 21.289 10.0656 21.4029 8.99783Z" fill="#D3302F"/>
<path fill-rule="evenodd" clip-rule="evenodd" d="M15.0725 27.9871C15.0484 27.9871 15.0239 27.985 14.9997 27.9804C14.7896 27.9406 14.6511 27.7377 14.6902 27.5268C15.1708 24.9867 14.9956 23.9984 14.8165 23.8148C14.8053 23.8036 14.8015 23.7994 14.7651 23.8053C14.3101 23.8791 13.9603 23.8032 13.7246 23.5801C13.3406 23.216 13.405 22.6243 13.4616 22.1018C13.4872 21.8681 13.5253 21.5156 13.4707 21.418C13.3382 21.1795 13.1735 21.0487 12.9542 21.0061C12.4425 20.9067 11.6094 21.2858 10.6684 22.0461C10.4015 22.2612 10.1882 22.6536 9.98079 23.0328C9.84124 23.2884 9.70869 23.5301 9.55517 23.7315C9.42577 23.9019 9.182 23.9351 9.01133 23.805C8.84067 23.6749 8.80814 23.4315 8.93754 23.2608C9.0561 23.1062 9.1743 22.8897 9.29951 22.6607C9.53103 22.2357 9.79403 21.7538 10.1801 21.4419C10.9852 20.7924 12.1436 20.0576 13.1022 20.2437C13.5453 20.3297 13.9069 20.605 14.1496 21.04C14.3248 21.3534 14.28 21.7577 14.2335 22.1854C14.2045 22.4592 14.1545 22.9174 14.2587 23.0167C14.294 23.0499 14.4143 23.0755 14.641 23.0387C14.9221 22.9929 15.182 23.0765 15.373 23.2727C15.5622 23.4665 16.1364 24.0568 15.4537 27.6709C15.4184 27.8573 15.2554 27.9871 15.0725 27.9871L15.0725 27.9871Z" fill="#D3302F"/>
<path fill-rule="evenodd" clip-rule="evenodd" d="M11.7405 20.863C11.2671 21.0873 10.8017 21.4138 10.4108 21.7291C10.0921 21.9866 9.86183 22.3979 9.62239 22.8374C9.61894 22.8437 9.61524 22.8505 9.61177 22.8568C9.49423 23.0719 9.36494 23.3085 9.22921 23.4855L8.93652 23.261L9.23044 23.4839C9.2234 23.4932 9.22563 23.5056 9.23393 23.5119C9.24255 23.5184 9.25454 23.5164 9.26045 23.5086C9.3939 23.3335 9.51354 23.1173 9.65601 22.8563L9.66452 22.8407C9.76428 22.6583 9.87377 22.4581 9.99246 22.2764C10.1135 22.0911 10.2584 21.9023 10.4357 21.7593C10.9222 21.3663 11.3922 21.0622 11.8185 20.8682C12.2344 20.679 12.6559 20.5728 13.0235 20.6442C13.3723 20.7121 13.6191 20.9277 13.7921 21.2391C13.8481 21.3397 13.8587 21.4513 13.8628 21.5064C13.868 21.5777 13.8669 21.6545 13.8637 21.7259C13.8572 21.8687 13.8399 22.0265 13.8274 22.141C13.8274 22.1411 13.8273 22.142 13.8273 22.1421C13.7981 22.4112 13.7735 22.651 13.794 22.8654C13.8139 23.0722 13.8725 23.2132 13.9774 23.3127C14.0986 23.4274 14.3134 23.505 14.705 23.4415C14.72 23.439 14.7427 23.4357 14.7684 23.4345C14.7943 23.4333 14.8373 23.4333 14.8876 23.4458C14.9443 23.4598 14.9915 23.4847 15.0289 23.5127C15.0452 23.5249 15.0574 23.536 15.0644 23.5426L15.0727 23.5506L15.0763 23.5542L15.0796 23.5575C15.2003 23.6813 15.2622 23.8649 15.2994 24.0376C15.3404 24.2275 15.3653 24.474 15.3685 24.7835C15.375 25.4035 15.2946 26.3113 15.0516 27.5956L14.6892 27.5271L15.0519 27.5944C15.0497 27.6061 15.0574 27.6162 15.0671 27.6182C15.0671 27.6182 15.0671 27.6182 15.0671 27.6182C15.0675 27.6183 15.069 27.6185 15.0715 27.6185C15.0751 27.6183 15.0798 27.617 15.0837 27.6138C15.0872 27.6109 15.0894 27.6075 15.0903 27.6025C15.4287 25.8112 15.448 24.8046 15.3736 24.2374C15.3368 23.957 15.2781 23.7936 15.2307 23.6991C15.1865 23.611 15.1461 23.5696 15.1091 23.5318L15.108 23.5306C15.0045 23.4242 14.8665 23.3758 14.6993 23.403C14.5646 23.4248 14.4448 23.4311 14.3423 23.4214C14.2622 23.4138 14.1166 23.3906 14.005 23.2856L14.0032 23.284C13.8813 23.1678 13.852 23.0097 13.8412 22.9403C13.827 22.8485 13.8246 22.7491 13.8264 22.6596C13.8297 22.486 13.8501 22.2943 13.8641 22.1616C13.8647 22.1566 13.8652 22.1516 13.8657 22.1467C13.8896 21.9268 13.9091 21.7437 13.905 21.5794C13.9009 21.4184 13.8742 21.3053 13.8266 21.2203C13.6306 20.8688 13.3552 20.669 13.0309 20.606M11.7405 20.863C12.2204 20.6357 12.6638 20.5348 13.0309 20.606ZM11.4246 20.1964C11.9648 19.9405 12.5799 19.767 13.1714 19.8818C13.7333 19.9909 14.1813 20.3418 14.4706 20.8604C14.5982 21.0887 14.6367 21.3343 14.6424 21.5607C14.6479 21.7779 14.6232 22.0054 14.601 22.209L14.5993 22.2245L14.599 22.2277C14.5841 22.3679 14.5666 22.5327 14.5639 22.6738C14.5639 22.6751 14.5639 22.6763 14.5639 22.6775M14.5809 22.6749C14.976 22.6106 15.358 22.7298 15.6363 23.0157C15.6936 23.0744 15.7952 23.1791 15.8901 23.3682C15.9822 23.5518 16.0599 23.7982 16.105 24.1414C16.1943 24.8214 16.1595 25.9168 15.8152 27.7396C15.7462 28.1035 15.4283 28.3562 15.0715 28.3562H15.0392L15.0341 28.3553C15.0003 28.3536 14.9656 28.3498 14.9304 28.3431C14.52 28.2653 14.2504 27.8697 14.3266 27.4597L14.3268 27.4585C14.5644 26.2027 14.6366 25.3463 14.6309 24.7912C14.628 24.5164 14.606 24.3238 14.5792 24.1974C14.1543 24.2238 13.7647 24.1271 13.4701 23.8482C13.1909 23.5836 13.0895 23.2464 13.0597 22.9358C13.0313 22.6394 13.0649 22.3294 13.0921 22.079L13.0939 22.0622C13.1069 21.9433 13.1215 21.8082 13.1267 21.6923C13.1293 21.6358 13.1292 21.5925 13.1272 21.5629C13.0431 21.4253 12.9659 21.3846 12.8829 21.3684C12.7388 21.3404 12.4879 21.3741 12.1241 21.5397C11.7706 21.7005 11.3536 21.9661 10.8991 22.3333C10.8097 22.4054 10.7142 22.5205 10.6101 22.6799C10.5073 22.8371 10.4097 23.0156 10.3049 23.2073L10.3016 23.2132C10.1656 23.4625 10.0204 23.7285 9.84767 23.9551M8.97474 22.4842C8.9792 22.476 8.9837 22.4677 8.98822 22.4594C9.21018 22.0519 9.503 21.5142 9.94732 21.1552C10.3615 20.8211 10.878 20.4553 11.4246 20.1964M14.8236 24.1696C14.8246 24.1694 14.8245 24.1694 14.8236 24.1696Z" fill="#D3302F"/>
<path fill-rule="evenodd" clip-rule="evenodd" d="M29.4298 22.0528C29.3811 22.0528 29.3315 22.0438 29.2829 22.0242C28.6138 21.7521 28.3253 21.188 28.4932 20.4763C28.5477 20.2426 28.5316 20.115 28.4981 20.0737C28.397 19.9492 27.8944 19.9615 27.5283 19.9702C27.0439 19.9821 26.4959 19.995 26.0328 19.8167C25.0683 19.4449 23.8519 18.808 23.5333 17.8851C23.3868 17.4588 23.4445 17.0077 23.6991 16.5803C23.8841 16.2725 24.2551 16.1082 24.6493 15.9347C24.9011 15.8235 25.3225 15.6374 25.3561 15.4972C25.3673 15.4503 25.3298 15.3328 25.185 15.1555C25.0042 14.9338 24.9497 14.6659 25.0315 14.4001C25.3956 13.2162 28.8898 12.0908 29.9522 11.7736C30.1575 11.7124 30.374 11.8292 30.4345 12.0345C30.4964 12.2398 30.3789 12.4563 30.1736 12.5175C30.1624 12.521 29.0059 12.8676 27.8686 13.3407C25.8293 14.1888 25.7705 14.6369 25.7705 14.6414H25.7708C25.7708 14.6414 25.7757 14.6505 25.7869 14.6641C26.0782 15.0212 26.1874 15.3625 26.1115 15.6776C25.9884 16.192 25.4431 16.4323 24.963 16.6443C24.7479 16.739 24.423 16.8824 24.3663 16.9783C24.2257 17.2122 24.1946 17.42 24.2673 17.6316C24.4373 18.124 25.1823 18.6562 26.3115 19.0917C26.6312 19.2148 27.0771 19.204 27.5086 19.1938C28.1518 19.1784 28.7582 19.1638 29.0999 19.5838C29.3083 19.8405 29.3566 20.1906 29.2475 20.6536C29.1677 20.9939 29.2597 21.1764 29.5741 21.3044C29.7735 21.3849 29.8682 21.6115 29.7885 21.8102C29.7269 21.9609 29.5811 22.0525 29.4286 22.0525L29.4298 22.0528Z" fill="#D3302F"/>
<path fill-rule="evenodd" clip-rule="evenodd" d="M30.0706 12.1289C30.073 12.1302 30.0748 12.1318 30.0761 12.1333ZM30.0761 12.1333C30.0771 12.1346 30.0782 12.1362 30.079 12.139ZM30.7863 11.9294C30.6673 11.5278 30.2446 11.3013 29.8451 11.4204C29.3088 11.5805 28.1516 11.9465 27.0781 12.4252C26.5422 12.6641 26.0141 12.9368 25.5912 13.233C25.1842 13.5181 24.8068 13.8709 24.6773 14.2918M30.7863 11.9294C30.9067 12.331 30.6766 12.7522 30.2773 12.8712C30.1961 12.8958 29.0923 13.2306 28.0085 13.6816C27.0045 14.0991 26.5161 14.4071 26.2854 14.5942C26.2633 14.6121 26.2439 14.6286 26.2269 14.6438C26.4552 14.9944 26.5619 15.3752 26.4684 15.764C26.3788 16.138 26.1375 16.394 25.8834 16.575C25.6411 16.7477 25.3561 16.8735 25.1261 16.9749L25.1102 16.982C25.0005 17.0303 24.8762 17.0853 24.7732 17.1386C24.723 17.1646 24.6856 17.1863 24.6611 17.2028C24.5835 17.3446 24.5868 17.4316 24.6144 17.5119C24.6623 17.6506 24.8169 17.8506 25.1424 18.0831C25.4585 18.3089 25.8971 18.5375 26.4425 18.7478C26.55 18.7892 26.6971 18.8142 26.8868 18.8247C27.075 18.8352 27.2792 18.8305 27.4982 18.8254L27.5183 18.8249C27.8253 18.8175 28.1677 18.8093 28.4777 18.8622C28.8039 18.9179 29.1374 19.0478 29.3843 19.3513C29.6925 19.7308 29.728 20.2154 29.6048 20.7384C29.5795 20.8465 29.5886 20.8861 29.5909 20.8932C29.596 20.8998 29.6218 20.9266 29.7115 20.9631L29.5724 21.3047L29.7104 20.9627C30.1005 21.1201 30.2838 21.5625 30.1291 21.9478L30.1282 21.9499C30.0084 22.2432 29.7253 22.4212 29.4281 22.4216C29.3331 22.4216 29.2365 22.4041 29.1433 22.3666L29.1422 22.3661C28.7411 22.203 28.426 21.9396 28.2439 21.583C28.0622 21.227 28.0325 20.8161 28.1323 20.3924C28.1363 20.3752 28.1397 20.3593 28.1426 20.3445C28.1257 20.343 28.1076 20.3416 28.088 20.3404C27.9229 20.3302 27.7227 20.3347 27.5356 20.3392M29.4448 21.672C29.4489 21.6604 29.4427 21.6501 29.4344 21.6468L29.4333 21.6463C29.2371 21.5665 29.0411 21.4424 28.9316 21.2245C28.8233 21.0088 28.8381 20.7769 28.8866 20.5697C28.9815 20.167 28.9206 19.9507 28.812 19.8168C28.7172 19.7003 28.5767 19.6275 28.3535 19.5894C28.1209 19.5497 27.8467 19.5549 27.5157 19.5628L27.505 19.5631C27.2953 19.568 27.0648 19.5735 26.8459 19.5613C26.625 19.549 26.3894 19.5179 26.1772 19.4362C25.5934 19.211 25.0948 18.9557 24.7136 18.6834C24.3418 18.4178 24.039 18.1059 23.9169 17.7522C23.8012 17.4156 23.8649 17.094 24.0484 16.7885C24.1076 16.6898 24.1989 16.6249 24.2441 16.5942C24.3032 16.554 24.3704 16.5165 24.4338 16.4836C24.5601 16.4182 24.7046 16.3545 24.8098 16.3082L24.8123 16.3071C25.0598 16.1978 25.2798 16.0993 25.4553 15.9742C25.6247 15.8536 25.7174 15.7323 25.751 15.592C25.7849 15.4512 25.759 15.261 25.5848 15.0105H25.5368C25.5903 15.0844 25.6325 15.1555 25.6632 15.2231C25.6965 15.2965 25.7486 15.4343 25.7131 15.5831C25.6739 15.7471 25.5518 15.852 25.4969 15.8963C25.4245 15.9547 25.3396 16.0066 25.2612 16.0499C25.1059 16.1358 24.9255 16.2154 24.8027 16.2696L24.7966 16.2724C24.5946 16.3613 24.4268 16.4361 24.2868 16.5219C24.1499 16.6058 24.0646 16.6858 24.0138 16.77C23.8085 17.1151 23.7732 17.4535 23.8803 17.7653C24.0024 18.1187 24.3118 18.4523 24.7489 18.7544C25.1801 19.0525 25.6956 19.2923 26.1638 19.4728C26.5461 19.62 27.0167 19.614 27.5175 19.6017L27.5273 19.6015C27.7051 19.5972 27.9344 19.5918 28.1337 19.6041C28.2346 19.6104 28.3429 19.622 28.4404 19.6456C28.5173 19.6642 28.6748 19.7089 28.7825 19.8412M25.3999 14.8133V14.6416C25.3999 14.6246 25.4012 14.611 25.4014 14.6083L25.4028 14.595C25.4037 14.5883 25.4046 14.5823 25.4055 14.5771C25.4073 14.5667 25.4095 14.5565 25.412 14.5466C25.4169 14.5267 25.4234 14.5062 25.4316 14.4852C25.448 14.4432 25.4714 14.3983 25.5032 14.3507C25.5663 14.2564 25.6655 14.147 25.8208 14.0212C26.1292 13.7711 26.69 13.431 27.7252 13.0004C28.3043 12.7595 28.8863 12.5516 29.3236 12.4038C29.5426 12.3298 29.7261 12.2706 29.8558 12.2296C29.9812 12.19 30.0672 12.164 30.0619 12.1657L30.0665 12.1642C30.0716 12.1627 30.0754 12.1597 30.0781 12.1548C30.0795 12.1523 30.0802 12.1498 30.0804 12.1479C30.0806 12.1461 30.0805 12.1441 30.0797 12.1412L30.079 12.139M25.3999 14.8133C25.3548 14.7155 25.3502 14.613 25.3823 14.5089C25.4349 14.3379 25.6308 14.106 26.0145 13.8372C26.3823 13.5796 26.8624 13.3291 27.3785 13.099C28.4085 12.6397 29.5297 12.2844 30.0559 12.1273M25.7691 14.6775V14.6416C25.7692 14.6416 25.769 14.6417 25.7691 14.6416C25.4447 14.8163 25.4444 14.8166 25.4444 14.8166L25.4453 14.8182L25.4462 14.82L25.4483 14.8237L25.453 14.8318C25.4565 14.8376 25.4604 14.844 25.465 14.8509C25.4741 14.8647 25.4857 14.8808 25.5 14.8983L25.7691 14.6775ZM29.4448 21.672C29.4432 21.6756 29.4408 21.6782 29.4377 21.6803C29.4336 21.683 29.4295 21.6839 29.4269 21.6839C29.4249 21.6838 29.4223 21.6837 29.419 21.6823L29.2811 22.0244L29.4201 21.6828C29.1521 21.5738 28.9885 21.4191 28.901 21.2476C28.8133 21.0758 28.7826 20.849 28.8505 20.5612C28.8824 20.4244 28.898 20.3013 28.8957 20.1953C28.8939 20.1106 28.8802 19.9616 28.7825 19.8412M24.6773 14.2918C24.5579 14.6796 24.6416 15.075 24.8975 15.3889ZM24.8975 15.3889C24.9011 15.3933 24.9048 15.3979 24.9082 15.4022ZM24.9082 15.4022C24.9069 15.4029 24.9056 15.4036 24.9044 15.4043C24.7803 15.4729 24.6275 15.5406 24.4985 15.5976M29.5898 20.8916C29.5898 20.8916 29.5904 20.8923 29.5909 20.8932Z" fill="#D3302F"/>
<path fill-rule="evenodd" clip-rule="evenodd" d="M33.3083 24.8785H33.3094H33.3083ZM10.6873 1.83584C10.5377 1.83584 10.3859 1.87466 10.2484 1.9558C7.7643 3.42429 5.6946 5.52729 4.26103 8.03694C2.83865 10.5295 2.08641 13.369 2.08641 16.2483C2.08641 20.6808 3.8123 24.8482 6.94661 27.9832C10.0809 31.1175 14.2483 32.8441 18.6815 32.8441C21.5608 32.8441 24.401 32.0918 26.8932 30.6687C29.4028 29.2359 31.5058 27.1655 32.9736 24.681C33.2163 24.2707 33.0799 23.7398 32.6694 23.4971C32.2588 23.2544 31.7278 23.3911 31.4855 23.8014C30.168 26.0302 28.2855 27.8855 26.043 29.1663C23.8159 30.4382 21.2699 31.1108 18.6814 31.1108C14.712 31.1108 10.9793 29.5649 8.17226 26.758C5.36563 23.9508 3.81987 20.2188 3.81987 16.2489C3.81987 13.6609 4.49206 11.1155 5.76405 8.8877C7.04515 6.64449 8.89943 4.76264 11.1286 3.44483C11.5392 3.20246 11.6756 2.67122 11.4328 2.26095C11.2723 1.98851 10.9831 1.83673 10.6879 1.83638L10.6873 1.83584ZM18.6808 33.6203C14.0409 33.6203 9.67842 31.8132 6.39709 28.5321C3.11622 25.2509 1.30957 20.8884 1.30957 16.2484C1.30957 13.2341 2.09717 10.2617 3.58671 7.65233C5.08707 5.02584 7.25364 2.82498 9.85318 1.28791C10.6327 0.827666 11.6407 1.08681 12.1009 1.86566C12.5611 2.64451 12.302 3.6528 11.5235 4.11308C9.41034 5.36231 7.65123 7.14667 6.43764 9.27267C5.23245 11.3829 4.59562 13.7954 4.59562 16.2488C4.59562 20.0111 6.06062 23.5487 8.72068 26.2091C11.3811 28.8695 14.9187 30.3345 18.681 30.3345C21.1347 30.3345 23.5472 29.6977 25.6575 28.4925C27.7839 27.2786 29.5682 25.5202 30.8167 23.4071C31.277 22.6282 32.2859 22.369 33.0644 22.8293C33.8433 23.2896 34.1028 24.2978 33.6429 25.0767C33.6432 25.0767 33.6429 25.0767 33.6429 25.0767C32.1051 27.6766 29.9039 29.8439 27.2784 31.3435C24.6691 32.8334 21.6963 33.621 18.6817 33.621L18.6808 33.6203Z" fill="#D3302F"/>
<path fill-rule="evenodd" clip-rule="evenodd" d="M11.783 2.05355C11.4265 1.45021 10.6448 1.24898 10.0404 1.60579C7.49624 3.11017 5.37539 5.26453 3.90675 7.83544M9.66536 0.970536C10.6201 0.40685 11.8542 0.723921 12.4181 1.67828C12.9819 2.63243 12.6648 3.86687 11.7109 4.43084C9.65274 5.64757 7.93941 7.3856 6.75768 9.45578C5.58465 11.5097 4.96418 13.8592 4.96418 16.249C4.96418 19.9136 6.39034 23.3573 8.98123 25.9486C11.5725 28.5398 15.0162 29.9659 18.6807 29.9659C21.0709 29.9659 23.4203 29.3455 25.4743 28.1725C27.5449 26.9904 29.2829 25.2777 30.4989 23.2197C31.0628 22.2654 32.298 21.9481 33.2518 22.5121C34.2059 23.0759 34.5237 24.3102 33.9602 25.2645C32.3898 27.9196 30.142 30.1327 27.4611 31.6641C24.7958 33.1859 21.76 33.9901 18.6814 33.9901H18.5487L18.5472 33.9889C13.8593 33.9547 9.45504 32.112 6.136 28.7932C2.78595 25.4428 0.94043 20.9864 0.94043 16.2487C0.94043 13.1704 1.74465 10.135 3.26609 7.46972C4.79813 4.78777 7.01059 2.54027 9.66536 0.970536ZM10.0606 1.63841C10.2566 1.52271 10.4735 1.46724 10.6871 1.46724H10.8328L10.8442 1.4779C11.2072 1.52466 11.5487 1.7321 11.75 2.07346C12.0964 2.65899 11.902 3.41651 11.316 3.76259C11.3159 3.76264 11.3161 3.76255 11.316 3.76259C9.14188 5.04787 7.33334 6.88338 6.08406 9.07087C4.84417 11.2424 4.18844 13.7247 4.18844 16.2491C4.18844 20.1212 5.69534 23.7594 8.43282 26.4975C8.43283 26.4975 8.4328 26.4975 8.43282 26.4975C11.1707 29.2352 14.8095 30.7422 18.6811 30.7422C21.206 30.7422 23.6889 30.0861 25.8597 28.8462C28.0465 27.5973 29.8827 25.7878 31.1677 23.6139C31.1677 23.6139 31.1676 23.614 31.1677 23.6139C31.5137 23.0284 32.2708 22.8334 32.8568 23.1798C33.432 23.5199 33.6301 24.256 33.3091 24.8371V24.5099H33.308V24.839C33.3024 24.849 33.2967 24.8591 33.2908 24.869M27.0758 30.9893C24.5277 32.4443 21.6244 33.2132 18.6812 33.2132C14.1502 33.2132 9.88898 31.4477 6.6855 28.2442C3.48204 25.0401 1.71727 20.7789 1.71727 16.2485C1.71727 13.3053 2.48613 10.4028 3.94038 7.85437C5.40562 5.28928 7.52121 3.13959 10.0606 1.63841M33.308 24.918C31.8037 27.4499 29.6554 29.5611 27.0953 31.0235C24.5799 32.4597 21.7189 33.2293 18.8134 33.2519L18.6805 33.2517C14.1385 33.2517 9.86979 31.4835 6.65763 28.2715C3.44594 25.0596 1.67813 20.7908 1.67813 16.2487C1.67813 13.2983 2.44914 10.3889 3.90675 7.83544M6.65763 28.2715C6.65764 28.2715 6.65763 28.2715 6.65763 28.2715ZM18.8134 33.2519C18.7694 33.2523 18.7254 33.2524 18.6814 33.2524V33.6213L18.9163 33.337L18.8134 33.2519ZM27.0953 31.0235C27.0953 31.0235 27.0952 31.0235 27.0953 31.0235ZM33.3091 24.9163L33.325 24.8894C33.325 24.8894 33.3249 24.8895 33.325 24.8894L33.4322 24.7081H33.6426L33.6427 25.4458H32.9964L33.308 24.918M31.134 23.5949C31.134 23.5949 31.134 23.5949 31.134 23.5949ZM31.134 23.5949C29.8529 25.7631 28.0222 27.5673 25.8401 28.8131C25.8401 28.8131 25.8401 28.8131 25.8401 28.8131C23.6735 30.0504 21.1979 30.7036 18.6807 30.7036C14.8206 30.7036 11.1892 29.1998 8.45958 26.4702C5.73034 23.7406 4.22648 20.1092 4.22648 16.249C4.22648 13.7322 4.87971 11.2566 6.11701 9.09007C6.11702 9.09004 6.117 9.09009 6.11701 9.09007C7.36247 6.90823 9.16737 5.07755 11.3354 3.79582C11.3355 3.79582 11.3354 3.79582 11.3354 3.79582C11.9386 3.43923 12.1396 2.65711 11.783 2.05355M33.325 24.8894C33.3196 24.8984 33.3144 24.9073 33.3091 24.9163ZM10.4358 2.27357C8.007 3.70938 5.98293 5.76593 4.58102 8.22014C3.19056 10.6568 2.45497 13.4332 2.45497 16.2485C2.45497 20.5832 4.142 24.6568 7.20714 27.7226C10.2723 30.7877 14.3459 32.4755 18.6812 32.4755C21.4966 32.4755 24.2737 31.7398 26.71 30.3487C29.1641 28.9475 31.2207 26.9228 32.6558 24.4936C32.7946 24.2589 32.7167 23.954 32.4814 23.8149C32.2462 23.6759 31.9415 23.7544 31.8028 23.9892C30.4528 26.2731 28.5238 28.1742 26.2256 29.4868C23.9423 30.7909 21.3331 31.4799 18.6811 31.4799C14.6139 31.4799 10.7874 29.8952 7.91116 27.0191C5.03538 24.1427 3.45073 20.3168 3.45073 16.2491C3.45073 13.5976 4.13935 10.9891 5.44344 8.70506C6.75636 6.40614 8.6564 4.47791 10.9406 3.12756C11.1755 2.98888 11.2541 2.68394 11.1151 2.44902C11.024 2.29443 10.8584 2.20568 10.6872 2.20548L10.6645 2.20545C10.5862 2.20901 10.5078 2.23115 10.4358 2.27357ZM31.134 23.5949C31.4906 22.9915 32.2733 22.7905 32.8764 23.1471ZM32.8764 23.1471C33.4799 23.5037 33.6811 24.286 33.325 24.8894Z" fill="#D3302F"/>
<path fill-rule="evenodd" clip-rule="evenodd" d="M16.6841 38.4517C16.4697 38.4517 16.2959 38.2779 16.2959 38.0635V33.1158C16.2959 32.9015 16.4697 32.7276 16.6841 32.7276C16.8985 32.7276 17.0723 32.9015 17.0723 33.1158V38.0632C17.0723 38.2775 16.8985 38.4514 16.6841 38.4514V38.4517ZM20.8256 38.4517C20.6113 38.4517 20.4371 38.2779 20.4371 38.0635V33.0977C20.4371 32.8833 20.6109 32.7095 20.8253 32.7095C21.0397 32.7095 21.2135 32.8833 21.2135 33.0977V38.0635C21.2135 38.2779 21.0397 38.4517 20.8253 38.4517H20.8256Z" fill="#D3302F"/>
<path fill-rule="evenodd" clip-rule="evenodd" d="M20.825 33.0785C20.8143 33.0785 20.8056 33.0872 20.8056 33.0979V38.0637C20.8056 38.074 20.8142 38.0831 20.8253 38.0831V38.8208C21.2433 38.8206 21.582 38.4817 21.582 38.0637V33.0979C21.582 32.6798 21.2431 32.3408 20.825 32.3408C20.4069 32.3408 20.0679 32.6798 20.0679 33.0979V38.0637C20.0679 38.4821 20.4075 38.8206 20.825 38.8208M20.825 38.0831C20.8357 38.0831 20.8443 38.0744 20.8443 38.0637V33.0979C20.8443 33.0872 20.8357 33.0785 20.825 33.0785M16.6838 33.0967C16.6731 33.0967 16.6645 33.1054 16.6645 33.116V38.0637C16.6645 38.0731 16.6712 38.081 16.6801 38.0827H16.6838C16.6945 38.0827 16.7032 38.074 16.7032 38.0634V33.116C16.7032 33.1054 16.6945 33.0967 16.6838 33.0967ZM17.0527 38.7246C17.2843 38.5952 17.4409 38.3475 17.4409 38.0634V33.116C17.4409 32.698 17.1019 32.359 16.6838 32.359C16.2657 32.359 15.9268 32.698 15.9268 33.116V38.0637C15.9268 38.4818 16.2657 38.8208 16.6838 38.8208H17.0527V38.7246Z" fill="#D3302F"/>
<path fill-rule="evenodd" clip-rule="evenodd" d="M4.27383 44.5462H33.2363V41.8872H4.27383V44.5462ZM33.6249 45.3226H3.88527C3.67089 45.3226 3.49707 45.1488 3.49707 44.9344V41.499C3.49707 41.2847 3.67089 41.1108 3.88527 41.1108H33.6249C33.8393 41.1108 34.0131 41.2847 34.0131 41.499V44.9344C34.0131 45.1488 33.8389 45.3226 33.6249 45.3226Z" fill="#D3302F"/>
<path fill-rule="evenodd" clip-rule="evenodd" d="M3.88498 41.4794C3.87431 41.4794 3.86563 41.4881 3.86563 41.4987V44.9342C3.86563 44.9448 3.87431 44.9535 3.88498 44.9535H33.6246C33.6297 44.9535 33.6341 44.9518 33.6382 44.9477C33.6423 44.9437 33.6439 44.9394 33.6439 44.9342V41.4987C33.6439 41.4881 33.6353 41.4794 33.6246 41.4794H3.88498ZM3.12793 41.4987C3.12793 41.0806 3.46689 40.7417 3.88498 40.7417H33.6246C34.0427 40.7417 34.3816 41.0806 34.3816 41.4987V44.9342C34.3816 45.3525 34.0421 45.6912 33.6246 45.6912H3.88498C3.46689 45.6912 3.12793 45.3522 3.12793 44.9342V41.4987ZM3.90469 41.5181H33.6049V44.9148H3.90469V41.5181ZM4.6424 42.2558V44.1771H32.8672V42.2558H4.6424Z" fill="#D3302F"/>
<path fill-rule="evenodd" clip-rule="evenodd" d="M29.7272 41.8872C29.5129 41.8872 29.339 41.7134 29.339 41.499L29.3394 38.4522H8.17421V41.499C8.17421 41.7134 8.00004 41.8872 7.78566 41.8872C7.57163 41.8872 7.39746 41.7134 7.39746 41.499V38.064C7.39746 37.8496 7.57128 37.6758 7.78566 37.6758H29.728C29.9424 37.6758 30.1162 37.8496 30.1162 38.064V41.499C30.1162 41.7134 29.942 41.8872 29.728 41.8872H29.7272Z" fill="#D3302F"/>
<path fill-rule="evenodd" clip-rule="evenodd" d="M7.78537 38.0443C7.7747 38.0443 7.76602 38.053 7.76602 38.0637V41.4987C7.76602 41.5039 7.7677 41.5083 7.77175 41.5123C7.77582 41.5164 7.78023 41.5181 7.78537 41.5181C7.79647 41.5181 7.80507 41.509 7.80507 41.4987V38.083H29.708L29.7076 41.4987C29.7076 41.4988 29.7076 41.4987 29.7076 41.4987M7.02832 38.0637C7.02832 37.6456 7.36727 37.3066 7.78537 37.3066H29.7277C30.1458 37.3066 30.4847 37.6456 30.4847 38.0637V41.4987C30.4847 41.917 30.1452 42.2558 29.7277 42.2558C29.3096 42.2558 28.9699 41.9168 28.9699 41.4987L28.9702 38.8208H8.54277V41.4987C8.54277 41.9173 8.20303 42.2558 7.78537 42.2558C7.36784 42.2558 7.02832 41.917 7.02832 41.4987V38.0637Z" fill="#D3302F"/>
<path fill-rule="evenodd" clip-rule="evenodd" d="M31.3271 32.1201C30.9389 32.1201 30.5507 31.9725 30.2545 31.6766L28.6461 30.0678C28.4943 29.916 28.4943 29.6702 28.6458 29.5187C28.7975 29.3673 29.0431 29.3673 29.1948 29.5187L30.8036 31.1275C31.0929 31.4161 31.5618 31.4161 31.851 31.1272C32.1403 30.8383 32.1403 30.3686 31.851 30.0801L30.356 28.585C30.2052 28.4332 30.2052 28.1874 30.356 28.0359C30.5078 27.8845 30.7543 27.8845 30.9061 28.0359L32.4005 29.531C32.9919 30.1224 32.9919 31.0848 32.4005 31.6763C32.1046 31.9722 31.716 32.1201 31.3279 32.1201L31.3271 32.1201Z" fill="#D3302F"/>
<path fill-rule="evenodd" clip-rule="evenodd" d="M30.6307 28.2914C30.6245 28.2914 30.6199 28.2935 30.6162 28.2973L30.3557 28.0361L30.6171 28.2964C30.6136 28.2999 30.6115 28.3043 30.6115 28.3105C30.6115 28.3167 30.6135 28.3213 30.6172 28.3251C30.6173 28.3252 30.6171 28.3251 30.6172 28.3251L32.1112 29.8192C32.1113 29.8192 32.1112 29.8191 32.1112 29.8192C32.5449 30.2519 32.5447 30.9555 32.1114 31.3883C31.6782 31.821 30.976 31.821 30.5428 31.3889L28.934 29.78C28.934 29.78 28.934 29.7801 28.934 29.78C28.9262 29.7723 28.9138 29.7723 28.906 29.78C28.8988 29.7872 28.8987 29.7992 28.9066 29.8072L30.5149 31.4158C30.739 31.6397 31.0321 31.7514 31.3268 31.7514H31.3355C31.6274 31.7494 31.9176 31.6374 32.1393 31.4157C32.5867 30.9683 32.5867 30.2394 32.1393 29.792L30.6453 28.2973C30.6452 28.2972 30.6453 28.2973 30.6453 28.2973C30.6415 28.2936 30.6369 28.2914 30.6307 28.2914ZM30.0951 27.775C30.3909 27.4799 30.8705 27.4799 31.1663 27.775L32.661 29.2704C32.661 29.2704 32.661 29.2704 32.661 29.2704C33.3964 30.0059 33.3964 31.2018 32.661 31.9373C32.293 32.3053 31.8093 32.4891 31.3276 32.4891H31.3189L31.3176 32.4891C30.839 32.4868 30.3595 32.3033 29.9936 31.9377L28.385 30.3288C28.385 30.3288 28.385 30.3288 28.385 30.3288C28.0894 30.0332 28.089 29.5538 28.3846 29.2581C28.6804 28.963 29.1593 28.9627 29.455 29.2578L31.0638 30.8666C31.0639 30.8666 31.0638 30.8665 31.0638 30.8666C31.2091 31.0113 31.4449 31.0114 31.5901 30.8664C31.7351 30.7215 31.7349 30.4857 31.5903 30.3414L30.0939 28.8451C29.8005 28.5497 29.8001 28.0714 30.0942 27.7759L30.0951 27.775Z" fill="#D3302F"/>
<path fill-rule="evenodd" clip-rule="evenodd" d="M28.8619 26.9281C28.7626 26.9281 28.6636 26.8903 28.5877 26.8145L26.8356 25.063C26.6838 24.9116 26.6838 24.6657 26.8356 24.514C26.9874 24.3625 27.2329 24.3625 27.3847 24.514L29.1368 26.2654C29.2882 26.4172 29.2882 26.663 29.1368 26.8145C29.0609 26.8903 28.9619 26.9281 28.8619 26.9281ZM27.1329 28.3921C27.0336 28.3921 26.9335 28.3544 26.8577 28.2785L25.0639 26.484C24.9125 26.3326 24.9121 26.0867 25.0639 25.9349C25.2157 25.7831 25.4612 25.7835 25.613 25.9349L27.4078 27.7294C27.5585 27.8808 27.5582 28.1267 27.4078 28.2785C27.3319 28.3544 27.2319 28.3921 27.1329 28.3921H27.1329Z" fill="#D3302F"/>
<path fill-rule="evenodd" clip-rule="evenodd" d="M27.1239 24.7753C27.116 24.7675 27.1036 24.7675 27.0958 24.7753C27.0879 24.7832 27.0886 24.795 27.0958 24.8021L28.8482 26.5538C28.8508 26.5564 28.8528 26.5575 28.8544 26.5582C28.8563 26.5589 28.8587 26.5595 28.8616 26.5595C28.8652 26.5595 28.8678 26.5588 28.8696 26.5581C28.8712 26.5574 28.8731 26.5564 28.8757 26.5538C28.8829 26.5466 28.8833 26.5341 28.8755 26.5262C28.8754 26.5261 28.8755 26.5262 28.8755 26.5262L27.1239 24.7753ZM26.5748 24.253C26.8705 23.958 27.3491 23.958 27.6449 24.253L29.3973 26.0047C29.6922 26.3003 29.693 26.7798 29.3973 27.0755C29.2493 27.2235 29.0552 27.2972 28.8616 27.2972C28.6683 27.2972 28.4744 27.2232 28.3267 27.0755C28.3266 27.0755 28.3267 27.0755 28.3267 27.0755L26.5748 25.3244C26.2786 25.0286 26.2792 24.5486 26.5748 24.253ZM25.3521 26.1962C25.3439 26.1881 25.3317 26.1886 25.3244 26.1959C25.3169 26.2035 25.3168 26.2158 25.3244 26.2234L27.1182 28.0179C27.1215 28.0212 27.1262 28.0235 27.1326 28.0235C27.1382 28.0235 27.1427 28.0215 27.1461 28.0184C27.1496 28.0146 27.1516 28.0099 27.1516 28.0038C27.1516 27.9976 27.1495 27.9933 27.1462 27.9899C27.1462 27.9899 27.1462 27.99 27.1462 27.9899L25.3521 26.1962C25.3521 26.1962 25.3521 26.1962 25.3521 26.1962ZM24.8028 25.6743C25.099 25.3781 25.5778 25.3793 25.8732 25.674L27.6683 27.4687C27.9628 27.7646 27.9618 28.2433 27.6695 28.5383L27.6683 28.5395C27.52 28.6878 27.3247 28.7612 27.1326 28.7612C26.9404 28.7612 26.745 28.688 26.5965 28.5395L24.8028 26.745C24.8028 26.745 24.8028 26.745 24.8028 26.745C24.5076 26.4497 24.5067 25.9703 24.8028 25.6743Z" fill="#D3302F"/>
<path fill-rule="evenodd" clip-rule="evenodd" d="M10.1403 8.20826C10.0403 8.20826 9.94095 8.17049 9.86506 8.0946L8.11392 6.34283C7.96249 6.19139 7.96214 5.94553 8.11392 5.79375C8.2657 5.64232 8.51122 5.64232 8.663 5.79375L10.4141 7.54516C10.5659 7.69659 10.5659 7.94281 10.4141 8.09424C10.3382 8.17013 10.2393 8.2079 10.1403 8.2079V8.20826ZM8.71863 9.98035C8.61931 9.98035 8.52034 9.94258 8.44444 9.86669L6.64997 8.07221C6.49819 7.92078 6.49819 7.67492 6.64997 7.52314C6.80175 7.37136 7.04726 7.3717 7.19905 7.52314L8.99388 9.31761C9.14566 9.46905 9.14531 9.71491 8.99388 9.86669C8.91834 9.94258 8.81902 9.98035 8.71899 9.98035H8.71863Z" fill="#D3302F"/>
<path fill-rule="evenodd" clip-rule="evenodd" d="M8.40213 6.05484C8.39432 6.04712 8.38193 6.04714 8.37415 6.05491C8.36663 6.06243 8.36685 6.07445 8.37445 6.08205L10.1256 7.83382C10.1279 7.83615 10.1299 7.83727 10.1316 7.83796C10.1327 7.8384 10.134 7.83881 10.1356 7.83909H10.14C10.1426 7.83909 10.1449 7.83858 10.1468 7.83783C10.1484 7.83718 10.1504 7.83605 10.153 7.83346C10.1604 7.82614 10.1607 7.81364 10.1533 7.80632L8.40213 6.05484C8.4021 6.05482 8.40215 6.05486 8.40213 6.05484ZM10.5089 8.48072C10.5682 8.44753 10.624 8.40575 10.6744 8.3554ZM10.6747 7.2844L8.92355 5.53299C8.62779 5.23791 8.14887 5.23759 7.85312 5.53267C7.55709 5.8287 7.55755 6.30837 7.85277 6.60364C7.85275 6.60362 7.85278 6.60365 7.85277 6.60364L9.60391 8.35541C9.75214 8.50364 9.94673 8.57715 10.14 8.57715H10.5089V8.48072M6.93818 7.78424C6.92999 7.77613 6.91784 7.77666 6.9105 7.78399C6.9026 7.7919 6.90303 7.80398 6.9102 7.81114L8.70496 9.6059C8.70496 9.6059 8.70496 9.6059 8.70496 9.6059C8.70753 9.60847 8.70958 9.6096 8.71116 9.61024C8.71299 9.61098 8.7154 9.61154 8.71834 9.61154C8.722 9.61154 8.72513 9.61084 8.72697 9.6101C8.72854 9.60946 8.73017 9.60852 8.73217 9.60652C8.74051 9.59816 8.73986 9.58554 8.73307 9.57877L6.93818 7.78424C6.93816 7.78422 6.9382 7.78426 6.93818 7.78424ZM6.38886 7.26236C6.68507 6.96615 7.1639 6.96736 7.45927 7.26206L9.25411 9.05654C9.25414 9.05657 9.25407 9.0565 9.25411 9.05654M6.38886 7.26236C6.09325 7.55797 6.09277 8.0375 6.38902 8.33322Z" fill="#D3302F"/>
<path fill-rule="evenodd" clip-rule="evenodd" d="M5.13673 6.39675C5.0374 6.39675 4.93738 6.35898 4.86149 6.28309L2.77882 4.1997C2.18707 3.6083 2.18707 2.64588 2.77847 2.05444C3.06385 1.76871 3.4447 1.61133 3.85105 1.61133C4.25779 1.61133 4.6376 1.76871 4.92363 2.05409L6.89332 4.02377C7.0451 4.17556 7.0451 4.42142 6.89332 4.57285C6.74188 4.72429 6.49602 4.72429 6.34424 4.57285L4.37491 2.60316C4.23537 2.46432 4.05036 2.38773 3.85101 2.38773C3.65307 2.38773 3.46666 2.46433 3.32711 2.60352C3.03823 2.8924 3.03788 3.36209 3.32711 3.65059L5.40979 5.73398C5.56157 5.88577 5.56157 6.13163 5.40979 6.28306C5.3339 6.35895 5.23492 6.39672 5.13595 6.39672L5.13673 6.39675Z" fill="#D3302F"/>
<path fill-rule="evenodd" clip-rule="evenodd" d="M3.85062 1.97989C3.54153 1.97989 3.25476 2.0988 3.03902 2.31481C2.59166 2.7622 2.59152 3.49117 3.03913 3.93851L5.12189 6.02199C5.12506 6.02516 5.12949 6.02742 5.13552 6.0276C5.13815 6.0276 5.14044 6.02708 5.14229 6.02632C5.1439 6.02567 5.14596 6.02454 5.14854 6.02196C5.15571 6.0148 5.15645 6.00242 5.14854 5.99451L3.0662 3.91145C3.06612 3.91137 3.06628 3.91153 3.0662 3.91145C2.63242 3.47852 2.63332 2.77497 3.06587 2.34242C3.27516 2.13365 3.55583 2.01859 3.85059 2.01859C4.14707 2.01859 4.42572 2.13352 4.63465 2.3414L6.60433 4.31145C6.61231 4.3194 6.62485 4.31897 6.63208 4.31175C6.63925 4.30459 6.63998 4.29221 6.63208 4.2843L4.66269 2.31491C4.66264 2.31487 4.66274 2.31496 4.66269 2.31491C4.44593 2.09872 4.15977 1.97989 3.85062 1.97989ZM2.51721 1.79334C2.87222 1.43798 3.34709 1.24219 3.85062 1.24219C4.35489 1.24219 4.82843 1.4382 5.18373 1.79268L7.15371 3.76267C7.44927 4.05823 7.4498 4.53764 7.15371 4.83338M5.67022 5.47292C5.96584 5.76859 5.96626 6.24819 5.66988 6.54389C5.66978 6.54399 5.66998 6.54379 5.66988 6.54389C5.52248 6.69113 5.32902 6.76508 5.1363 6.76528C4.94408 6.76528 4.74871 6.69209 4.60024 6.54361L2.51765 4.4603C2.51761 4.46026 2.51769 4.46034 2.51765 4.4603C1.78193 3.72489 1.78197 2.52881 2.51721 1.79334" fill="#D3302F"/>
</svg>
