<svg width="46" height="46" viewBox="0 0 46 46" fill="none" xmlns="http://www.w3.org/2000/svg">
<path fill-rule="evenodd" clip-rule="evenodd" d="M21.9993 24.9511C22.0007 24.556 22.3229 24.2364 22.7181 24.2378C23.1133 24.2391 23.4328 24.5613 23.4315 24.9565L23.4133 28.5312C23.412 28.9264 23.0898 29.2459 22.6946 29.2445C22.2994 29.2432 21.9798 28.921 21.9812 28.5258L21.9993 24.9511ZM38.2392 30.5051C40.1865 30.5051 41.765 32.0839 41.765 34.0309C41.765 35.9783 40.1862 37.5564 38.2392 37.5564C36.2918 37.5564 34.7133 35.9776 34.7133 34.0309C34.7137 32.0832 36.2918 30.5051 38.2392 30.5051ZM38.2392 38.4982C41.3711 38.4982 44.0211 40.5636 44.9017 43.4064C45.0564 43.9055 44.9727 44.4029 44.6622 44.8237C44.3518 45.2445 43.9024 45.4715 43.3795 45.4715H33.0997C32.5767 45.4715 32.1266 45.2445 31.8169 44.8237C31.5065 44.403 31.4227 43.9062 31.5774 43.4064C32.4573 40.563 35.1073 38.4982 38.2396 38.4982H38.2392ZM22.6968 30.5051C24.6442 30.5051 26.2226 32.0839 26.2226 34.0309C26.2226 35.9783 24.6438 37.5564 22.6968 37.5564C20.7494 37.5564 19.171 35.9776 19.171 34.0309C19.1713 32.0832 20.7494 30.5051 22.6968 30.5051ZM22.6968 38.4982C25.8288 38.4982 28.4787 40.5636 29.3593 43.4064C29.514 43.9055 29.4303 44.4029 29.1198 44.8237C28.8094 45.2445 28.36 45.4715 27.8371 45.4715H17.5573C17.0343 45.4715 16.5842 45.2445 16.2745 44.8237C15.9641 44.403 15.8804 43.9062 16.0351 43.4064C16.915 40.563 19.5649 38.4982 22.6969 38.4982H22.6968ZM7.15439 30.5051C9.10178 30.5051 10.6802 32.0839 10.6802 34.0309C10.6802 35.9783 9.10143 37.5564 7.15439 37.5564C5.20701 37.5564 3.62858 35.9776 3.62858 34.0309C3.62858 32.0832 5.20735 30.5051 7.15439 30.5051ZM7.15439 38.4982C10.2864 38.4982 12.9364 40.5636 13.8169 43.4064C13.9716 43.9055 13.8879 44.4029 13.5775 44.8237C13.267 45.2445 12.8177 45.4715 12.2947 45.4715H2.01491C1.49191 45.4715 1.04187 45.2445 0.732155 44.8237C0.421712 44.403 0.337968 43.9062 0.492686 43.4064C1.37257 40.563 4.02255 38.4982 7.15453 38.4982H7.15439ZM24.5996 3.95898C25.311 4.14095 25.982 4.42246 26.5975 4.78772L29.0982 2.97724L31.099 4.9781L29.2885 7.47946C29.6538 8.09529 29.935 8.76627 30.1169 9.4773L33.1651 9.96499V12.7953L30.1173 13.283C29.9353 13.9943 29.6538 14.6653 29.2885 15.2808L31.099 17.7822L29.0982 19.783L26.5968 17.9725C25.981 18.3378 25.31 18.619 24.599 18.8009L24.1113 21.8492H21.281L20.7933 18.8013C20.0819 18.6193 19.4109 18.3378 18.7955 17.9726L16.2948 19.783L14.2939 17.7822L16.1044 15.2808C15.7391 14.665 15.458 13.994 15.276 13.283L12.2278 12.7953V9.965L15.276 9.47731C15.458 8.76596 15.7391 8.09493 16.1044 7.47947L14.2939 4.9781L16.2948 2.97725L18.7955 4.78773C19.4113 4.42247 20.0823 4.14129 20.7933 3.95899L21.281 0.911133H24.1113L24.5996 3.95898ZM22.6966 7.19791C20.3873 7.19791 18.5149 9.07029 18.5149 11.3796C18.5149 13.6888 20.3873 15.5612 22.6966 15.5612C25.0059 15.5612 26.8783 13.6888 26.8783 11.3796C26.8783 9.07029 25.0059 7.19791 22.6966 7.19791ZM38.9579 28.5281V24.2579C38.9579 23.9838 38.8049 23.7457 38.5792 23.6246L33.9105 20.6057C33.5785 20.3901 33.1349 20.4846 32.9196 20.8162C32.704 21.1482 32.7985 21.5918 33.1302 21.8071L37.521 24.6468V28.5288C37.521 28.9257 37.8429 29.2475 38.2398 29.2475C38.6357 29.2469 38.9579 28.925 38.9579 28.5281H38.9579ZM7.87318 28.5281V24.6461L12.2641 21.8064C12.596 21.5908 12.6899 21.1469 12.4746 20.8156C12.259 20.4836 11.815 20.3897 11.4837 20.605L6.815 23.6239C6.58932 23.745 6.43629 23.9835 6.43629 24.2573V28.5274C6.43629 28.9243 6.75817 29.2462 7.15505 29.2462C7.55126 29.2469 7.87313 28.925 7.87313 28.5281L7.87318 28.5281Z" fill="#D3302F"/>
<path fill-rule="evenodd" clip-rule="evenodd" d="M21.0936 0.691406H24.2987L24.7942 3.78331C25.4266 3.95763 26.0268 4.20877 26.5844 4.52595L29.1211 2.68937L31.387 4.95526L29.5504 7.49271C29.8676 8.05059 30.1185 8.65074 30.2928 9.2829L33.385 9.77764V12.9828L30.2931 13.4775C30.1188 14.11 29.8677 14.7102 29.5505 15.2678L31.387 17.8052L29.1212 20.0711L26.5837 18.2345C26.0258 18.5516 25.4257 18.8025 24.7935 18.9768L24.2988 22.0691H21.0936L20.5989 18.9771C19.9665 18.8028 19.3663 18.5517 18.8087 18.2345L16.272 20.0711L14.0061 17.8052L15.8427 15.2677C15.5255 14.7099 15.2746 14.1097 15.1003 13.4776L12.0081 12.9828V9.77765L15.1003 9.28291C15.2746 8.65052 15.5255 8.05032 15.8426 7.49269L14.0061 4.95527L16.272 2.68938L18.8087 4.52598C19.3666 4.20882 19.9668 3.95793 20.5989 3.7834L21.0936 0.691406ZM21.4685 1.13104L20.9876 4.1362L20.848 4.17201C20.1574 4.34905 19.5058 4.62212 18.9077 4.97688L18.7835 5.05051L16.3178 3.2653L14.582 5.00111L16.3672 7.46761L16.2935 7.59175C15.9388 8.18946 15.6657 8.84108 15.489 9.53187L15.4533 9.67166L12.4477 10.1525V12.6079L15.4533 13.0888L15.489 13.2286C15.6657 13.919 15.9388 14.5706 16.2935 15.1688L16.3672 15.2929L14.582 17.7593L16.3178 19.4952L18.7836 17.7099L18.9077 17.7836C19.5055 18.1384 20.1571 18.4117 20.8479 18.5884L20.9876 18.6242L21.4685 21.6294H23.9239L24.4048 18.6239L24.5445 18.5881C25.235 18.4114 25.8866 18.1383 26.4847 17.7836L26.6089 17.71L29.0753 19.4952L30.8112 17.7593L29.0259 15.2928L29.0996 15.1687C29.4544 14.5709 29.7277 13.9193 29.9044 13.2286L29.9402 13.0888L32.9454 12.6079V10.1525L29.9398 9.67165L29.9041 9.53189C29.7274 8.84141 29.4543 8.18981 29.0996 7.59169L29.0259 7.46757L30.8112 5.00111L29.0753 3.26529L26.6095 5.05052L26.4854 4.97684C25.8876 4.62208 25.236 4.34872 24.5453 4.17203L24.4055 4.13628L23.924 1.13104H21.4685ZM18.2952 11.3797C18.2952 8.94898 20.266 6.97818 22.6967 6.97818C25.1274 6.97818 27.0982 8.94898 27.0982 11.3797C27.0982 13.8103 25.1274 15.7811 22.6967 15.7811C20.266 15.7811 18.2952 13.8103 18.2952 11.3797ZM22.6967 7.41781C20.5088 7.41781 18.7348 9.19178 18.7348 11.3797C18.7348 13.5675 20.5088 15.3415 22.6967 15.3415C24.8846 15.3415 26.6585 13.5675 26.6585 11.3797C26.6585 9.19178 24.8846 7.41781 22.6967 7.41781ZM11.3642 20.4207C11.7972 20.1395 12.3773 20.2621 12.659 20.6959C12.9404 21.1289 12.8178 21.7091 12.3839 21.9909L8.09308 24.7658V28.7168L8.07344 28.7198C7.98497 29.1461 7.60722 29.4669 7.15476 29.4661C7.15463 29.4661 7.15488 29.4661 7.15476 29.4661C6.63665 29.4659 6.21656 29.0457 6.21656 28.5275V24.2574C6.21656 23.9031 6.41289 23.5943 6.70275 23.4349L6.69573 23.4394L6.81509 23.624L6.71117 23.4303C6.70835 23.4318 6.70555 23.4334 6.70275 23.4349L11.3642 20.4207ZM7.65345 28.3396V24.5266L12.1444 21.6222C12.3745 21.4728 12.4395 21.165 12.2904 20.9354C12.141 20.7054 11.8332 20.6403 11.6036 20.7894L6.92691 23.8135L6.919 23.8177C6.76211 23.9019 6.65619 24.0674 6.65619 24.2574V28.5275C6.65619 28.803 6.87965 29.0265 7.15513 29.0265C7.42944 29.0269 7.6534 28.8039 7.6534 28.5282L7.65345 28.3396ZM34.0303 20.4214C34.0303 20.4214 34.0303 20.4214 34.0303 20.4214L38.6916 23.4356C38.9814 23.5949 39.1778 23.9034 39.1778 24.258V28.748H39.1519C39.0529 29.1603 38.6817 29.4667 38.2403 29.4674C37.722 29.4674 37.3013 29.0472 37.3013 28.5289V24.7665L33.0109 21.9918C32.5774 21.7104 32.4536 21.1304 32.7353 20.6966C33.0167 20.2632 33.5965 20.1398 34.0303 20.4214ZM38.7382 28.3084V24.258C38.7382 24.0678 38.6323 23.9026 38.4754 23.8184L38.4675 23.8142L33.7912 20.7904C33.5611 20.6409 33.2532 20.7062 33.1041 20.936C32.9547 21.166 33.0201 21.4734 33.2496 21.6226C33.2497 21.6227 33.2495 21.6225 33.2496 21.6226L37.741 24.5272V28.5289C37.741 28.8042 37.9642 29.0276 38.2395 29.0278C38.5143 29.0273 38.7382 28.8037 38.7382 28.5282L38.7382 28.3084ZM22.7174 24.4577C22.4434 24.4567 22.2202 24.6784 22.2192 24.952L22.2011 28.5266C22.2011 28.5267 22.2011 28.5266 22.2011 28.5266C22.2002 28.8006 22.4218 29.0239 22.6954 29.0248C22.9694 29.0258 23.1927 28.8041 23.1936 28.5305L23.2117 24.9559C23.2117 24.9558 23.2117 24.9559 23.2117 24.9559C23.2126 24.6819 22.991 24.4586 22.7174 24.4577ZM21.7796 24.9503C21.7815 24.4336 22.2026 24.0163 22.7189 24.018C23.2357 24.0198 23.6531 24.441 23.6514 24.9574L23.6332 28.532C23.6332 28.5321 23.6332 28.532 23.6332 28.532M7.15448 30.725C5.32881 30.725 3.84848 32.2047 3.84848 34.031C3.84848 35.8563 5.3285 37.3367 7.15448 37.3367C8.98016 37.3367 10.4605 35.857 10.4605 34.031C10.4605 32.2054 8.98045 30.725 7.15448 30.725ZM3.40885 34.031C3.40885 31.9619 5.08607 30.2854 7.15448 30.2854C9.22327 30.2854 10.9001 31.9626 10.9001 34.031C10.9001 36.0998 9.22287 37.7763 7.15448 37.7763C5.0857 37.7763 3.40885 36.0991 3.40885 34.031ZM22.6969 30.725C20.8709 30.725 19.3912 32.2047 19.3909 34.0311C19.3909 35.8563 20.8709 37.3367 22.6969 37.3367C24.5225 37.3367 26.0029 35.857 26.0029 34.031C26.0029 32.2054 24.5228 30.725 22.6969 30.725ZM18.9512 34.031C18.9516 31.9619 20.6281 30.2854 22.6969 30.2854C24.7657 30.2854 26.4425 31.9626 26.4425 34.031C26.4425 36.0998 24.7653 37.7763 22.6969 37.7763C20.6281 37.7763 18.9512 36.0991 18.9512 34.031ZM38.2392 30.725C36.4133 30.725 34.9336 32.2047 34.9332 34.0311C34.9332 35.8563 36.4133 37.3367 38.2392 37.3367C40.0649 37.3367 41.5452 35.857 41.5452 34.031C41.5452 32.2054 40.0652 30.725 38.2392 30.725ZM34.4936 34.031C34.494 31.9619 36.1704 30.2854 38.2392 30.2854C40.308 30.2854 41.9849 31.9626 41.9849 34.031C41.9849 36.0998 40.3076 37.7763 38.2392 37.7763C36.1705 37.7763 34.4936 36.0991 34.4936 34.031ZM7.15448 38.7181C4.12161 38.7182 1.55494 40.7176 0.702761 43.4715C0.568654 43.9047 0.640236 44.3289 0.90912 44.6933C1.17729 45.0576 1.56167 45.2518 2.015 45.2518H12.2948C12.7479 45.2518 13.1316 45.0579 13.4007 44.6933C13.6696 44.3288 13.7411 43.904 13.6071 43.4716C12.7542 40.7182 10.1873 38.7182 7.15448 38.7181ZM7.15448 38.2785C3.9235 38.2785 1.19034 40.4087 0.282781 43.3415ZM7.15448 38.2785C10.3855 38.2785 13.1187 40.4093 14.027 43.3414C14.2023 43.9072 14.1064 44.4772 13.7544 44.9543C13.4026 45.4312 12.8876 45.6914 12.2948 45.6914H2.015C1.42231 45.6914 0.906468 45.4313 0.555212 44.9541C0.203334 44.4771 0.107484 43.9078 0.282781 43.3415M22.6969 38.7181C19.664 38.7182 17.0973 40.7176 16.2451 43.4715C16.111 43.9047 16.1826 44.3289 16.4515 44.6933C16.7197 45.0576 17.1041 45.2518 17.5574 45.2518H27.8372C28.2903 45.2518 28.674 45.0579 28.943 44.6933C29.2119 44.3288 29.2835 43.904 29.1494 43.4716C28.2966 40.7182 25.7297 38.7182 22.6969 38.7181ZM22.6969 38.2785C19.4659 38.2785 16.7327 40.4087 15.8252 43.3415ZM22.6969 38.2785C25.9278 38.2785 28.6611 40.4093 29.5694 43.3414C29.7447 43.9072 29.6488 44.4772 29.2968 44.9543C28.9449 45.4312 28.43 45.6914 27.8372 45.6914H17.5574C16.9647 45.6914 16.4488 45.4313 16.0976 44.9541C15.7457 44.4771 15.6499 43.9078 15.8252 43.3415M38.2392 38.7181C35.2062 38.7183 32.6397 40.7177 31.7875 43.4715C31.6534 43.9047 31.725 44.3289 31.9939 44.6933C32.2621 45.0576 32.6464 45.2518 33.0998 45.2518H43.3795C43.8327 45.2518 44.2164 45.0579 44.4854 44.6933C44.7543 44.3288 44.8259 43.904 44.6918 43.4716C43.839 40.7183 41.2719 38.7183 38.2392 38.7181ZM38.2392 38.2785C35.0081 38.2787 32.2751 40.4088 31.3675 43.3415ZM38.2392 38.2785C41.4701 38.2787 44.2035 40.4094 45.1117 43.3414C45.2871 43.9072 45.1912 44.4772 44.8392 44.9543C44.4873 45.4312 43.9723 45.6914 43.3795 45.6914H33.0998C32.5071 45.6914 31.9912 45.4313 31.64 44.9541C31.6399 44.9541 31.64 44.9542 31.64 44.9541C31.2881 44.4771 31.1922 43.9078 31.3675 43.3415" fill="#D3302F"/>
</svg>
