<svg width="35" height="46" viewBox="0 0 35 46" fill="none" xmlns="http://www.w3.org/2000/svg">
<path fill-rule="evenodd" clip-rule="evenodd" d="M32.6759 0.709616C32.8372 0.685581 32.9982 0.685581 33.153 0.708181C33.4248 0.746924 33.6741 0.852746 33.8856 1.007C34.0971 1.15982 34.2715 1.36536 34.3903 1.60966C34.4572 1.74956 34.5044 1.90059 34.5288 2.0595L34.5466 2.32962V32.834C34.5466 36.3826 31.6294 39.2624 28.0347 39.2624C24.4401 39.2624 21.5229 36.3826 21.5229 32.834C21.5229 29.2855 24.4401 26.4057 28.0347 26.4057C29.2197 26.4057 30.3317 26.7192 31.2907 27.267V12.5111L13.3831 17.9512V39.263C13.3831 42.8116 10.4659 45.6914 6.87123 45.6914C3.27659 45.6914 0.359375 42.8116 0.359375 39.263C0.359375 35.7145 3.27659 32.8347 6.87123 32.8347C8.0562 32.8347 9.16814 33.1482 10.1272 33.696V8.72821C10.1272 8.02259 10.5926 7.3991 11.2765 7.19183L32.4093 0.773107L32.6764 0.71033L32.6759 0.709616ZM6.87128 36.0482C8.66855 36.0482 10.1272 37.4881 10.1272 39.2624C10.1272 41.0366 8.66855 42.4765 6.87128 42.4765C5.07401 42.4765 3.61536 41.0366 3.61536 39.2624C3.61536 37.4881 5.07401 36.0482 6.87128 36.0482ZM28.0348 29.6198C29.8321 29.6198 31.2907 31.0598 31.2907 32.834C31.2907 34.6082 29.8321 36.0482 28.0348 36.0482C26.2375 36.0482 24.7789 34.6082 24.7789 32.834C24.7789 31.0598 26.2375 29.6198 28.0348 29.6198ZM13.3831 9.91503V14.5867L31.2907 9.14666V4.47498L13.3831 9.91503Z" fill="#D3302F"/>
</svg>
